  0
SECTION
  2
HEADER
  9
$ACADVER
  1
AC1009
  9
$FILLMODE
 70
1
  9
$EXTMIN
 10
-1.4681
 20
0.0000
 30
0.0000
  9
$EXTMAX
 10
294.9575
 20
105.0265
 30
0.0000
  0
ENDSEC
  0
SECTION
  2
TABLES
  0
TABLE
  2
LTYPE
 70
1
  0
LTYPE
  2
CONTINUOUS
 70
64
  3
Solid line
 72
65
 73
0
 40
0
  0
ENDTAB
  0
TABLE
  2
LAYER
 70
255
  0
LAYER
  2
20
 70
64
 62
31
  6
CONTINUOUS
  0
LAYER
  2
51
 70
64
 62
253
  6
CONTINUOUS
  0
LAYER
  2
108
 70
64
 62
253
  6
CONTINUOUS
  0
LAYER
  2
109
 70
64
 62
253
  6
CONTINUOUS
  0
LAYER
  2
110
 70
64
 62
253
  6
CONTINUOUS
  0
LAYER
  2
111
 70
64
 62
253
  6
CONTINUOUS
  0
LAYER
  2
112
 70
64
 62
253
  6
CONTINUOUS
  0
LAYER
  2
113
 70
64
 62
253
  6
CONTINUOUS
  0
LAYER
  2
114
 70
64
 62
253
  6
CONTINUOUS
  0
LAYER
  2
115
 70
64
 62
253
  6
CONTINUOUS
  0
LAYER
  2
116
 70
64
 62
253
  6
CONTINUOUS
  0
LAYER
  2
117
 70
64
 62
253
  6
CONTINUOUS
  0
LAYER
  2
118
 70
64
 62
253
  6
CONTINUOUS
  0
LAYER
  2
119
 70
64
 62
253
  6
CONTINUOUS
  0
LAYER
  2
120
 70
64
 62
253
  6
CONTINUOUS
  0
LAYER
  2
121
 70
64
 62
253
  6
CONTINUOUS
  0
LAYER
  2
122
 70
64
 62
253
  6
CONTINUOUS
  0
LAYER
  2
123
 70
64
 62
253
  6
CONTINUOUS
  0
LAYER
  2
124
 70
64
 62
253
  6
CONTINUOUS
  0
LAYER
  2
125
 70
64
 62
253
  6
CONTINUOUS
  0
LAYER
  2
126
 70
64
 62
253
  6
CONTINUOUS
  0
LAYER
  2
127
 70
64
 62
253
  6
CONTINUOUS
  0
LAYER
  2
128
 70
64
 62
253
  6
CONTINUOUS
  0
LAYER
  2
129
 70
64
 62
253
  6
CONTINUOUS
  0
LAYER
  2
130
 70
64
 62
253
  6
CONTINUOUS
  0
LAYER
  2
131
 70
64
 62
253
  6
CONTINUOUS
  0
LAYER
  2
132
 70
64
 62
253
  6
CONTINUOUS
  0
LAYER
  2
133
 70
64
 62
253
  6
CONTINUOUS
  0
LAYER
  2
134
 70
64
 62
253
  6
CONTINUOUS
  0
LAYER
  2
135
 70
64
 62
253
  6
CONTINUOUS
  0
LAYER
  2
136
 70
64
 62
253
  6
CONTINUOUS
  0
LAYER
  2
137
 70
64
 62
253
  6
CONTINUOUS
  0
LAYER
  2
138
 70
64
 62
253
  6
CONTINUOUS
  0
LAYER
  2
139
 70
64
 62
253
  6
CONTINUOUS
  0
LAYER
  2
140
 70
64
 62
253
  6
CONTINUOUS
  0
LAYER
  2
141
 70
64
 62
253
  6
CONTINUOUS
  0
LAYER
  2
142
 70
64
 62
253
  6
CONTINUOUS
  0
LAYER
  2
143
 70
64
 62
253
  6
CONTINUOUS
  0
LAYER
  2
144
 70
64
 62
253
  6
CONTINUOUS
  0
LAYER
  2
145
 70
64
 62
253
  6
CONTINUOUS
  0
LAYER
  2
146
 70
64
 62
253
  6
CONTINUOUS
  0
LAYER
  2
147
 70
64
 62
253
  6
CONTINUOUS
  0
LAYER
  2
148
 70
64
 62
253
  6
CONTINUOUS
  0
LAYER
  2
149
 70
64
 62
253
  6
CONTINUOUS
  0
LAYER
  2
150
 70
64
 62
253
  6
CONTINUOUS
  0
LAYER
  2
151
 70
64
 62
253
  6
CONTINUOUS
  0
LAYER
  2
152
 70
64
 62
253
  6
CONTINUOUS
  0
LAYER
  2
153
 70
64
 62
253
  6
CONTINUOUS
  0
LAYER
  2
154
 70
64
 62
253
  6
CONTINUOUS
  0
LAYER
  2
155
 70
64
 62
253
  6
CONTINUOUS
  0
LAYER
  2
191
 70
64
 62
253
  6
CONTINUOUS
  0
LAYER
  2
192
 70
64
 62
253
  6
CONTINUOUS
  0
LAYER
  2
193
 70
64
 62
253
  6
CONTINUOUS
  0
LAYER
  2
194
 70
64
 62
253
  6
CONTINUOUS
  0
LAYER
  2
195
 70
64
 62
253
  6
CONTINUOUS
  0
LAYER
  2
196
 70
64
 62
253
  6
CONTINUOUS
  0
LAYER
  2
199
 70
64
 62
253
  6
CONTINUOUS
  0
LAYER
  2
200
 70
64
 62
253
  6
CONTINUOUS
  0
LAYER
  2
201
 70
64
 62
253
  6
CONTINUOUS
  0
LAYER
  2
202
 70
64
 62
253
  6
CONTINUOUS
  0
LAYER
  2
203
 70
64
 62
253
  6
CONTINUOUS
  0
LAYER
  2
204
 70
64
 62
253
  6
CONTINUOUS
  0
LAYER
  2
205
 70
64
 62
253
  6
CONTINUOUS
  0
LAYER
  2
206
 70
64
 62
253
  6
CONTINUOUS
  0
LAYER
  2
207
 70
64
 62
253
  6
CONTINUOUS
  0
LAYER
  2
208
 70
64
 62
253
  6
CONTINUOUS
  0
LAYER
  2
209
 70
64
 62
253
  6
CONTINUOUS
  0
LAYER
  2
210
 70
64
 62
253
  6
CONTINUOUS
  0
LAYER
  2
211
 70
64
 62
253
  6
CONTINUOUS
  0
LAYER
  2
212
 70
64
 62
253
  6
CONTINUOUS
  0
LAYER
  2
213
 70
64
 62
253
  6
CONTINUOUS
  0
LAYER
  2
214
 70
64
 62
253
  6
CONTINUOUS
  0
LAYER
  2
215
 70
64
 62
253
  6
CONTINUOUS
  0
LAYER
  2
216
 70
64
 62
253
  6
CONTINUOUS
  0
LAYER
  2
217
 70
64
 62
253
  6
CONTINUOUS
  0
LAYER
  2
218
 70
64
 62
253
  6
CONTINUOUS
  0
LAYER
  2
219
 70
64
 62
253
  6
CONTINUOUS
  0
LAYER
  2
220
 70
64
 62
253
  6
CONTINUOUS
  0
LAYER
  2
221
 70
64
 62
253
  6
CONTINUOUS
  0
LAYER
  2
222
 70
64
 62
253
  6
CONTINUOUS
  0
LAYER
  2
223
 70
64
 62
253
  6
CONTINUOUS
  0
LAYER
  2
224
 70
64
 62
253
  6
CONTINUOUS
  0
LAYER
  2
225
 70
64
 62
253
  6
CONTINUOUS
  0
LAYER
  2
226
 70
64
 62
253
  6
CONTINUOUS
  0
LAYER
  2
227
 70
64
 62
253
  6
CONTINUOUS
  0
LAYER
  2
228
 70
64
 62
253
  6
CONTINUOUS
  0
LAYER
  2
229
 70
64
 62
253
  6
CONTINUOUS
  0
LAYER
  2
230
 70
64
 62
253
  6
CONTINUOUS
  0
LAYER
  2
231
 70
64
 62
253
  6
CONTINUOUS
  0
LAYER
  2
232
 70
64
 62
253
  6
CONTINUOUS
  0
LAYER
  2
233
 70
64
 62
253
  6
CONTINUOUS
  0
LAYER
  2
248
 70
64
 62
253
  6
CONTINUOUS
  0
LAYER
  2
249
 70
64
 62
253
  6
CONTINUOUS
  0
LAYER
  2
250
 70
64
 62
253
  6
CONTINUOUS
  0
LAYER
  2
251
 70
64
 62
253
  6
CONTINUOUS
  0
LAYER
  2
254
 70
64
 62
253
  6
CONTINUOUS
  0
LAYER
  2
255
 70
64
 62
253
  6
CONTINUOUS
  0
ENDTAB
  0
ENDSEC
  0
SECTION
  2
BLOCKS
  0
BLOCK
  8
0
  2
RECT
 70
64
 10
0.0000
 20
0.0000
 30
0.0000
  3
RECT
  0
SOLID
  8
0
 10
-0.5000
 20
-0.5000
 30
0.0000
 11
0.5000
 21
-0.5000
 31
0.0000
 12
-0.5000
 22
0.5000
 32
0.0000
 13
0.5000
 23
0.5000
 33
0.0000
  0
ENDBLK
  8
0
  0
BLOCK
  8
0
  2
PIE
 70
64
 10
0.0000
 20
0.0000
 30
0.0000
  3
PIE
  0
POLYLINE
  8
0
 66
1
 10
0.0000
 20
0.0000
 30
0.0000
 40
0.5000
 41
0.5000
 70
0
  0
VERTEX
  8
0
 10
0.0000
 20
-0.2500
 30
0.0000
 42
1.0000
  0
VERTEX
  8
0
 10
0.0000
 20
0.2500
 30
0.0000
 42
1.0000
  0
VERTEX
  8
0
 10
0.0000
 20
-0.2500
 30
0.0000
  0
SEQEND
  8
0
  0
ENDBLK
  8
0
  0
BLOCK
  8
0
  2
OCTAGONP
 70
64
 10
0.0000
 20
0.0000
 30
0.0000
  3
OCTAGONP
  0
POLYLINE
  8
0
 66
1
 10
0.0000
 20
0.0000
 30
0.0000
 40
0.5000
 41
0.5000
 70
0
  0
VERTEX
  8
0
 10
-0.2500
 20
-0.1036
 30
0.0000
  0
VERTEX
  8
0
 10
-0.2500
 20
0.1036
 30
0.0000
  0
VERTEX
  8
0
 10
-0.1036
 20
0.2500
 30
0.0000
  0
VERTEX
  8
0
 10
0.1036
 20
0.2500
 30
0.0000
  0
VERTEX
  8
0
 10
0.2500
 20
0.1036
 30
0.0000
  0
VERTEX
  8
0
 10
0.2500
 20
-0.1036
 30
0.0000
  0
VERTEX
  8
0
 10
0.1036
 20
-0.2500
 30
0.0000
  0
VERTEX
  8
0
 10
-0.1036
 20
-0.2500
 30
0.0000
  0
VERTEX
  8
0
 10
-0.2500
 20
-0.1036
 30
0.0000
  0
VERTEX
  8
0
 10
-0.2500
 20
0.1036
 30
0.0000
  0
SEQEND
  8
0
  0
ENDBLK
  8
0
  0
BLOCK
  8
0
  2
SQUAREP
 70
64
 10
0.0000
 20
0.0000
 30
0.0000
  3
SQUAREP
  0
SOLID
  8
0
 10
-0.5000
 20
-0.5000
 30
0.0000
 11
0.5000
 21
-0.5000
 31
0.0000
 12
-0.5000
 22
0.5000
 32
0.0000
 13
0.5000
 23
0.5000
 33
0.0000
  0
ENDBLK
  8
0
  0
BLOCK
  8
0
  2
ROUNDP
 70
64
 10
0.0000
 20
0.0000
 30
0.0000
  3
ROUNDP
  0
POLYLINE
  8
0
 66
1
 10
0.0000
 20
0.0000
 30
0.0000
 40
0.5000
 41
0.5000
 70
0
  0
VERTEX
  8
0
 10
0.0000
 20
-0.2500
 30
0.0000
 42
1.0000
  0
VERTEX
  8
0
 10
0.0000
 20
0.2500
 30
0.0000
 42
1.0000
  0
VERTEX
  8
0
 10
0.0000
 20
-0.2500
 30
0.0000
  0
SEQEND
  8
0
  0
ENDBLK
  8
0
  0
BLOCK
  8
0
  2
ANNULUSP
 70
64
 10
0.0000
 20
0.0000
 30
0.0000
  3
ANNULUSP
  0
POLYLINE
  8
0
 66
1
 10
0.0000
 20
0.0000
 30
0.0000
 40
0.5000
 41
0.5000
 70
0
  0
VERTEX
  8
0
 10
0.0000
 20
-0.2500
 30
0.0000
 42
1.0000
  0
VERTEX
  8
0
 10
0.0000
 20
0.2500
 30
0.0000
 42
1.0000
  0
VERTEX
  8
0
 10
0.0000
 20
-0.2500
 30
0.0000
  0
SEQEND
  8
0
  0
ENDBLK
  8
0
  0
BLOCK
  8
0
  2
THERMALP
 70
64
 10
0.0000
 20
0.0000
 30
0.0000
  3
THERMALP
  0
POLYLINE
  8
0
 66
1
 10
0.0000
 20
0.0000
 30
0.0000
 40
0.1000
 41
0.1000
 70
0
  0
VERTEX
  8
0
 10
-0.2379
 20
0.4500
 30
0.0000
  0
VERTEX
  8
0
 10
0.2379
 20
0.4500
 30
0.0000
  0
SEQEND
  8
0
  0
POLYLINE
  8
0
 66
1
 10
0.0000
 20
0.0000
 30
0.0000
 40
0.0500
 41
0.0500
 70
0
  0
VERTEX
  8
0
 10
0.2379
 20
0.4250
 30
0.0000
 42
1.0000
  0
VERTEX
  8
0
 10
0.2379
 20
0.4750
 30
0.0000
  0
SEQEND
  8
0
  0
POLYLINE
  8
0
 66
1
 10
0.0000
 20
0.0000
 30
0.0000
 40
0.0500
 41
0.0500
 70
0
  0
VERTEX
  8
0
 10
-0.2379
 20
0.4750
 30
0.0000
 42
1.0000
  0
VERTEX
  8
0
 10
-0.2379
 20
0.4250
 30
0.0000
  0
SEQEND
  8
0
  0
POLYLINE
  8
0
 66
1
 10
0.0000
 20
0.0000
 30
0.0000
 40
0.1000
 41
0.1000
 70
0
  0
VERTEX
  8
0
 10
0.4500
 20
0.2379
 30
0.0000
  0
VERTEX
  8
0
 10
0.4500
 20
-0.2379
 30
0.0000
  0
SEQEND
  8
0
  0
POLYLINE
  8
0
 66
1
 10
0.0000
 20
0.0000
 30
0.0000
 40
0.0500
 41
0.0500
 70
0
  0
VERTEX
  8
0
 10
0.4250
 20
-0.2379
 30
0.0000
 42
1.0000
  0
VERTEX
  8
0
 10
0.4750
 20
-0.2379
 30
0.0000
  0
SEQEND
  8
0
  0
POLYLINE
  8
0
 66
1
 10
0.0000
 20
0.0000
 30
0.0000
 40
0.0500
 41
0.0500
 70
0
  0
VERTEX
  8
0
 10
0.4750
 20
0.2379
 30
0.0000
 42
1.0000
  0
VERTEX
  8
0
 10
0.4250
 20
0.2379
 30
0.0000
  0
SEQEND
  8
0
  0
POLYLINE
  8
0
 66
1
 10
0.0000
 20
0.0000
 30
0.0000
 40
0.1000
 41
0.1000
 70
0
  0
VERTEX
  8
0
 10
0.2379
 20
-0.4500
 30
0.0000
  0
VERTEX
  8
0
 10
-0.2379
 20
-0.4500
 30
0.0000
  0
SEQEND
  8
0
  0
POLYLINE
  8
0
 66
1
 10
0.0000
 20
0.0000
 30
0.0000
 40
0.0500
 41
0.0500
 70
0
  0
VERTEX
  8
0
 10
-0.2379
 20
-0.4250
 30
0.0000
 42
1.0000
  0
VERTEX
  8
0
 10
-0.2379
 20
-0.4750
 30
0.0000
  0
SEQEND
  8
0
  0
POLYLINE
  8
0
 66
1
 10
0.0000
 20
0.0000
 30
0.0000
 40
0.0500
 41
0.0500
 70
0
  0
VERTEX
  8
0
 10
0.2379
 20
-0.4750
 30
0.0000
 42
1.0000
  0
VERTEX
  8
0
 10
0.2379
 20
-0.4250
 30
0.0000
  0
SEQEND
  8
0
  0
POLYLINE
  8
0
 66
1
 10
0.0000
 20
0.0000
 30
0.0000
 40
0.1000
 41
0.1000
 70
0
  0
VERTEX
  8
0
 10
-0.4500
 20
-0.2379
 30
0.0000
  0
VERTEX
  8
0
 10
-0.4500
 20
0.2379
 30
0.0000
  0
SEQEND
  8
0
  0
POLYLINE
  8
0
 66
1
 10
0.0000
 20
0.0000
 30
0.0000
 40
0.0500
 41
0.0500
 70
0
  0
VERTEX
  8
0
 10
-0.4250
 20
0.2379
 30
0.0000
 42
1.0000
  0
VERTEX
  8
0
 10
-0.4750
 20
0.2379
 30
0.0000
  0
SEQEND
  8
0
  0
POLYLINE
  8
0
 66
1
 10
0.0000
 20
0.0000
 30
0.0000
 40
0.0500
 41
0.0500
 70
0
  0
VERTEX
  8
0
 10
-0.4750
 20
-0.2379
 30
0.0000
 42
1.0000
  0
VERTEX
  8
0
 10
-0.4250
 20
-0.2379
 30
0.0000
  0
SEQEND
  8
0
  0
ENDBLK
  8
0
  0
BLOCK
  8
0
  2
OCTAGONV
 70
64
 10
0.0000
 20
0.0000
 30
0.0000
  3
OCTAGONV
  0
POLYLINE
  8
0
 66
1
 10
0.0000
 20
0.0000
 30
0.0000
 40
0.5000
 41
0.5000
 70
0
  0
VERTEX
  8
0
 10
-0.2500
 20
-0.1036
 30
0.0000
  0
VERTEX
  8
0
 10
-0.2500
 20
0.1036
 30
0.0000
  0
VERTEX
  8
0
 10
-0.1036
 20
0.2500
 30
0.0000
  0
VERTEX
  8
0
 10
0.1036
 20
0.2500
 30
0.0000
  0
VERTEX
  8
0
 10
0.2500
 20
0.1036
 30
0.0000
  0
VERTEX
  8
0
 10
0.2500
 20
-0.1036
 30
0.0000
  0
VERTEX
  8
0
 10
0.1036
 20
-0.2500
 30
0.0000
  0
VERTEX
  8
0
 10
-0.1036
 20
-0.2500
 30
0.0000
  0
VERTEX
  8
0
 10
-0.2500
 20
-0.1036
 30
0.0000
  0
VERTEX
  8
0
 10
-0.2500
 20
0.1036
 30
0.0000
  0
SEQEND
  8
0
  0
ENDBLK
  8
0
  0
BLOCK
  8
0
  2
SQUAREV
 70
64
 10
0.0000
 20
0.0000
 30
0.0000
  3
SQUAREV
  0
SOLID
  8
0
 10
-0.5000
 20
-0.5000
 30
0.0000
 11
0.5000
 21
-0.5000
 31
0.0000
 12
-0.5000
 22
0.5000
 32
0.0000
 13
0.5000
 23
0.5000
 33
0.0000
  0
ENDBLK
  8
0
  0
BLOCK
  8
0
  2
ROUNDV
 70
64
 10
0.0000
 20
0.0000
 30
0.0000
  3
ROUNDV
  0
POLYLINE
  8
0
 66
1
 10
0.0000
 20
0.0000
 30
0.0000
 40
0.5000
 41
0.5000
 70
0
  0
VERTEX
  8
0
 10
0.0000
 20
-0.2500
 30
0.0000
 42
1.0000
  0
VERTEX
  8
0
 10
0.0000
 20
0.2500
 30
0.0000
 42
1.0000
  0
VERTEX
  8
0
 10
0.0000
 20
-0.2500
 30
0.0000
  0
SEQEND
  8
0
  0
ENDBLK
  8
0
  0
BLOCK
  8
0
  2
ANNULUSV
 70
64
 10
0.0000
 20
0.0000
 30
0.0000
  3
ANNULUSV
  0
POLYLINE
  8
0
 66
1
 10
0.0000
 20
0.0000
 30
0.0000
 40
0.5000
 41
0.5000
 70
0
  0
VERTEX
  8
0
 10
0.0000
 20
-0.2500
 30
0.0000
 42
1.0000
  0
VERTEX
  8
0
 10
0.0000
 20
0.2500
 30
0.0000
 42
1.0000
  0
VERTEX
  8
0
 10
0.0000
 20
-0.2500
 30
0.0000
  0
SEQEND
  8
0
  0
ENDBLK
  8
0
  0
BLOCK
  8
0
  2
THERMALV
 70
64
 10
0.0000
 20
0.0000
 30
0.0000
  3
THERMALV
  0
POLYLINE
  8
0
 66
1
 10
0.0000
 20
0.0000
 30
0.0000
 40
0.1000
 41
0.1000
 70
0
  0
VERTEX
  8
0
 10
-0.2379
 20
0.4500
 30
0.0000
  0
VERTEX
  8
0
 10
0.2379
 20
0.4500
 30
0.0000
  0
SEQEND
  8
0
  0
POLYLINE
  8
0
 66
1
 10
0.0000
 20
0.0000
 30
0.0000
 40
0.0500
 41
0.0500
 70
0
  0
VERTEX
  8
0
 10
0.2379
 20
0.4250
 30
0.0000
 42
1.0000
  0
VERTEX
  8
0
 10
0.2379
 20
0.4750
 30
0.0000
  0
SEQEND
  8
0
  0
POLYLINE
  8
0
 66
1
 10
0.0000
 20
0.0000
 30
0.0000
 40
0.0500
 41
0.0500
 70
0
  0
VERTEX
  8
0
 10
-0.2379
 20
0.4750
 30
0.0000
 42
1.0000
  0
VERTEX
  8
0
 10
-0.2379
 20
0.4250
 30
0.0000
  0
SEQEND
  8
0
  0
POLYLINE
  8
0
 66
1
 10
0.0000
 20
0.0000
 30
0.0000
 40
0.1000
 41
0.1000
 70
0
  0
VERTEX
  8
0
 10
0.4500
 20
0.2379
 30
0.0000
  0
VERTEX
  8
0
 10
0.4500
 20
-0.2379
 30
0.0000
  0
SEQEND
  8
0
  0
POLYLINE
  8
0
 66
1
 10
0.0000
 20
0.0000
 30
0.0000
 40
0.0500
 41
0.0500
 70
0
  0
VERTEX
  8
0
 10
0.4250
 20
-0.2379
 30
0.0000
 42
1.0000
  0
VERTEX
  8
0
 10
0.4750
 20
-0.2379
 30
0.0000
  0
SEQEND
  8
0
  0
POLYLINE
  8
0
 66
1
 10
0.0000
 20
0.0000
 30
0.0000
 40
0.0500
 41
0.0500
 70
0
  0
VERTEX
  8
0
 10
0.4750
 20
0.2379
 30
0.0000
 42
1.0000
  0
VERTEX
  8
0
 10
0.4250
 20
0.2379
 30
0.0000
  0
SEQEND
  8
0
  0
POLYLINE
  8
0
 66
1
 10
0.0000
 20
0.0000
 30
0.0000
 40
0.1000
 41
0.1000
 70
0
  0
VERTEX
  8
0
 10
0.2379
 20
-0.4500
 30
0.0000
  0
VERTEX
  8
0
 10
-0.2379
 20
-0.4500
 30
0.0000
  0
SEQEND
  8
0
  0
POLYLINE
  8
0
 66
1
 10
0.0000
 20
0.0000
 30
0.0000
 40
0.0500
 41
0.0500
 70
0
  0
VERTEX
  8
0
 10
-0.2379
 20
-0.4250
 30
0.0000
 42
1.0000
  0
VERTEX
  8
0
 10
-0.2379
 20
-0.4750
 30
0.0000
  0
SEQEND
  8
0
  0
POLYLINE
  8
0
 66
1
 10
0.0000
 20
0.0000
 30
0.0000
 40
0.0500
 41
0.0500
 70
0
  0
VERTEX
  8
0
 10
0.2379
 20
-0.4750
 30
0.0000
 42
1.0000
  0
VERTEX
  8
0
 10
0.2379
 20
-0.4250
 30
0.0000
  0
SEQEND
  8
0
  0
POLYLINE
  8
0
 66
1
 10
0.0000
 20
0.0000
 30
0.0000
 40
0.1000
 41
0.1000
 70
0
  0
VERTEX
  8
0
 10
-0.4500
 20
-0.2379
 30
0.0000
  0
VERTEX
  8
0
 10
-0.4500
 20
0.2379
 30
0.0000
  0
SEQEND
  8
0
  0
POLYLINE
  8
0
 66
1
 10
0.0000
 20
0.0000
 30
0.0000
 40
0.0500
 41
0.0500
 70
0
  0
VERTEX
  8
0
 10
-0.4250
 20
0.2379
 30
0.0000
 42
1.0000
  0
VERTEX
  8
0
 10
-0.4750
 20
0.2379
 30
0.0000
  0
SEQEND
  8
0
  0
POLYLINE
  8
0
 66
1
 10
0.0000
 20
0.0000
 30
0.0000
 40
0.0500
 41
0.0500
 70
0
  0
VERTEX
  8
0
 10
-0.4750
 20
-0.2379
 30
0.0000
 42
1.0000
  0
VERTEX
  8
0
 10
-0.4250
 20
-0.2379
 30
0.0000
  0
SEQEND
  8
0
  0
ENDBLK
  8
0
  0
ENDSEC
  0
SECTION
  2
ENTITIES
  0
LINE
  8
20
 10
-0.3175
 20
100.0125
 30
0.0000
 11
-0.3175
 21
4.7625
 31
0.0000
  0
LINE
  8
20
 10
4.4450
 20
0.0000
 30
0.0000
 11
290.1950
 21
0.0000
 31
0.0000
  0
LINE
  8
20
 10
294.9575
 20
4.7625
 30
0.0000
 11
294.9575
 21
100.0125
 31
0.0000
  0
LINE
  8
20
 10
290.1950
 20
104.7750
 30
0.0000
 11
4.4450
 21
104.7750
 31
0.0000
  0
ARC
  8
20
 10
4.4450
 20
100.0125
 30
0.0000
 40
4.7625
 50
90.0000
 51
180.0000
  0
ARC
  8
20
 10
4.4450
 20
4.7625
 30
0.0000
 40
4.7625
 50
180.0000
 51
270.0000
  0
ARC
  8
20
 10
290.1950
 20
4.7625
 30
0.0000
 40
4.7625
 50
270.0000
 51
0.0000
  0
ARC
  8
20
 10
290.1950
 20
100.0125
 30
0.0000
 40
4.7625
 50
0.0000
 51
90.0000
  0
CIRCLE
  8
20
 10
37.8143
 20
40.3225
 30
0.0000
 40
1.5240
  0
CIRCLE
  8
20
 10
37.8143
 20
25.0825
 30
0.0000
 40
1.9939
  0
CIRCLE
  8
20
 10
13.9383
 20
40.3225
 30
0.0000
 40
1.5240
  0
CIRCLE
  8
20
 10
13.9383
 20
25.0825
 30
0.0000
 40
1.9939
  0
CIRCLE
  8
20
 10
275.9393
 20
40.3225
 30
0.0000
 40
1.5240
  0
CIRCLE
  8
20
 10
275.9393
 20
25.0825
 30
0.0000
 40
1.9939
  0
CIRCLE
  8
20
 10
252.0633
 20
40.3225
 30
0.0000
 40
1.5240
  0
CIRCLE
  8
20
 10
252.0633
 20
25.0825
 30
0.0000
 40
1.9939
  0
CIRCLE
  8
20
 10
280.7018
 20
59.3725
 30
0.0000
 40
1.5240
  0
CIRCLE
  8
20
 10
280.7018
 20
44.1325
 30
0.0000
 40
1.9939
  0
CIRCLE
  8
20
 10
256.8258
 20
59.3725
 30
0.0000
 40
1.5240
  0
CIRCLE
  8
20
 10
256.8258
 20
44.1325
 30
0.0000
 40
1.9939
  0
CIRCLE
  8
20
 10
283.0830
 20
97.4725
 30
0.0000
 40
1.5240
  0
CIRCLE
  8
20
 10
283.0830
 20
82.2325
 30
0.0000
 40
1.9939
  0
CIRCLE
  8
20
 10
259.2070
 20
97.4725
 30
0.0000
 40
1.5240
  0
CIRCLE
  8
20
 10
259.2070
 20
82.2325
 30
0.0000
 40
1.9939
  0
CIRCLE
  8
20
 10
185.4137
 20
6.0325
 30
0.0000
 40
1.5240
  0
CIRCLE
  8
20
 10
185.4137
 20
21.2725
 30
0.0000
 40
1.9939
  0
CIRCLE
  8
20
 10
85.4139
 20
6.0325
 30
0.0000
 40
1.5240
  0
CIRCLE
  8
20
 10
85.4139
 20
21.2725
 30
0.0000
 40
1.9939
  0
POLYLINE
  8
51
 66
1
 10
0.0000
 20
0.0000
 30
0.0000
 40
0.1270
 41
0.1270
 70
0
  0
VERTEX
  8
51
 10
93.6173
 20
7.0808
 30
0.0000
  0
VERTEX
  8
51
 10
93.6173
 20
20.5808
 30
0.0000
  0
SEQEND
  8
0
  0
POLYLINE
  8
51
 66
1
 10
0.0000
 20
0.0000
 30
0.0000
 40
0.0635
 41
0.0635
 70
0
  0
VERTEX
  8
51
 10
93.6490
 20
20.5808
 30
0.0000
 42
1.0000
  0
VERTEX
  8
51
 10
93.5855
 20
20.5808
 30
0.0000
  0
SEQEND
  8
0
  0
POLYLINE
  8
51
 66
1
 10
0.0000
 20
0.0000
 30
0.0000
 40
0.0635
 41
0.0635
 70
0
  0
VERTEX
  8
51
 10
93.5855
 20
7.0808
 30
0.0000
 42
1.0000
  0
VERTEX
  8
51
 10
93.6490
 20
7.0808
 30
0.0000
  0
SEQEND
  8
0
  0
POLYLINE
  8
51
 66
1
 10
0.0000
 20
0.0000
 30
0.0000
 40
0.1270
 41
0.1270
 70
0
  0
VERTEX
  8
51
 10
111.6172
 20
20.5808
 30
0.0000
  0
VERTEX
  8
51
 10
93.6173
 20
20.5808
 30
0.0000
  0
SEQEND
  8
0
  0
POLYLINE
  8
51
 66
1
 10
0.0000
 20
0.0000
 30
0.0000
 40
0.0635
 41
0.0635
 70
0
  0
VERTEX
  8
51
 10
93.6173
 20
20.6125
 30
0.0000
 42
1.0000
  0
VERTEX
  8
51
 10
93.6173
 20
20.5490
 30
0.0000
  0
SEQEND
  8
0
  0
POLYLINE
  8
51
 66
1
 10
0.0000
 20
0.0000
 30
0.0000
 40
0.0635
 41
0.0635
 70
0
  0
VERTEX
  8
51
 10
111.6172
 20
20.5490
 30
0.0000
 42
1.0000
  0
VERTEX
  8
51
 10
111.6172
 20
20.6125
 30
0.0000
  0
SEQEND
  8
0
  0
POLYLINE
  8
51
 66
1
 10
0.0000
 20
0.0000
 30
0.0000
 40
0.1270
 41
0.1270
 70
0
  0
VERTEX
  8
51
 10
111.6172
 20
7.0808
 30
0.0000
  0
VERTEX
  8
51
 10
111.6172
 20
20.5808
 30
0.0000
  0
SEQEND
  8
0
  0
POLYLINE
  8
51
 66
1
 10
0.0000
 20
0.0000
 30
0.0000
 40
0.0635
 41
0.0635
 70
0
  0
VERTEX
  8
51
 10
111.6490
 20
20.5808
 30
0.0000
 42
1.0000
  0
VERTEX
  8
51
 10
111.5855
 20
20.5808
 30
0.0000
  0
SEQEND
  8
0
  0
POLYLINE
  8
51
 66
1
 10
0.0000
 20
0.0000
 30
0.0000
 40
0.0635
 41
0.0635
 70
0
  0
VERTEX
  8
51
 10
111.5855
 20
7.0808
 30
0.0000
 42
1.0000
  0
VERTEX
  8
51
 10
111.6490
 20
7.0808
 30
0.0000
  0
SEQEND
  8
0
  0
POLYLINE
  8
51
 66
1
 10
0.0000
 20
0.0000
 30
0.0000
 40
0.1270
 41
0.1270
 70
0
  0
VERTEX
  8
51
 10
111.6172
 20
7.0808
 30
0.0000
  0
VERTEX
  8
51
 10
93.6173
 20
7.0808
 30
0.0000
  0
SEQEND
  8
0
  0
POLYLINE
  8
51
 66
1
 10
0.0000
 20
0.0000
 30
0.0000
 40
0.0635
 41
0.0635
 70
0
  0
VERTEX
  8
51
 10
93.6173
 20
7.1125
 30
0.0000
 42
1.0000
  0
VERTEX
  8
51
 10
93.6173
 20
7.0490
 30
0.0000
  0
SEQEND
  8
0
  0
POLYLINE
  8
51
 66
1
 10
0.0000
 20
0.0000
 30
0.0000
 40
0.0635
 41
0.0635
 70
0
  0
VERTEX
  8
51
 10
111.6172
 20
7.0490
 30
0.0000
 42
1.0000
  0
VERTEX
  8
51
 10
111.6172
 20
7.1125
 30
0.0000
  0
SEQEND
  8
0
  0
POLYLINE
  8
51
 66
1
 10
0.0000
 20
0.0000
 30
0.0000
 40
0.0100
 41
0.0100
 70
0
  0
VERTEX
  8
51
 10
23.6375
 20
102.3453
 30
0.0000
  0
VERTEX
  8
51
 10
24.2375
 20
102.3453
 30
0.0000
  0
SEQEND
  8
0
  0
POLYLINE
  8
51
 66
1
 10
0.0000
 20
0.0000
 30
0.0000
 40
0.0050
 41
0.0050
 70
0
  0
VERTEX
  8
51
 10
24.2375
 20
102.3428
 30
0.0000
 42
1.0000
  0
VERTEX
  8
51
 10
24.2375
 20
102.3478
 30
0.0000
  0
SEQEND
  8
0
  0
POLYLINE
  8
51
 66
1
 10
0.0000
 20
0.0000
 30
0.0000
 40
0.0050
 41
0.0050
 70
0
  0
VERTEX
  8
51
 10
23.6375
 20
102.3478
 30
0.0000
 42
1.0000
  0
VERTEX
  8
51
 10
23.6375
 20
102.3428
 30
0.0000
  0
SEQEND
  8
0
  0
POLYLINE
  8
51
 66
1
 10
0.0000
 20
0.0000
 30
0.0000
 40
0.0100
 41
0.0100
 70
0
  0
VERTEX
  8
51
 10
23.9375
 20
101.7452
 30
0.0000
  0
VERTEX
  8
51
 10
23.9375
 20
102.9453
 30
0.0000
  0
SEQEND
  8
0
  0
POLYLINE
  8
51
 66
1
 10
0.0000
 20
0.0000
 30
0.0000
 40
0.0050
 41
0.0050
 70
0
  0
VERTEX
  8
51
 10
23.9400
 20
102.9453
 30
0.0000
 42
1.0000
  0
VERTEX
  8
51
 10
23.9350
 20
102.9453
 30
0.0000
  0
SEQEND
  8
0
  0
POLYLINE
  8
51
 66
1
 10
0.0000
 20
0.0000
 30
0.0000
 40
0.0050
 41
0.0050
 70
0
  0
VERTEX
  8
51
 10
23.9350
 20
101.7452
 30
0.0000
 42
1.0000
  0
VERTEX
  8
51
 10
23.9400
 20
101.7452
 30
0.0000
  0
SEQEND
  8
0
  0
POLYLINE
  8
51
 66
1
 10
0.0000
 20
0.0000
 30
0.0000
 40
0.0100
 41
0.0100
 70
0
  0
VERTEX
  8
51
 10
23.6375
 20
98.1653
 30
0.0000
  0
VERTEX
  8
51
 10
24.2375
 20
98.1653
 30
0.0000
  0
SEQEND
  8
0
  0
POLYLINE
  8
51
 66
1
 10
0.0000
 20
0.0000
 30
0.0000
 40
0.0050
 41
0.0050
 70
0
  0
VERTEX
  8
51
 10
24.2375
 20
98.1628
 30
0.0000
 42
1.0000
  0
VERTEX
  8
51
 10
24.2375
 20
98.1677
 30
0.0000
  0
SEQEND
  8
0
  0
POLYLINE
  8
51
 66
1
 10
0.0000
 20
0.0000
 30
0.0000
 40
0.0050
 41
0.0050
 70
0
  0
VERTEX
  8
51
 10
23.6375
 20
98.1677
 30
0.0000
 42
1.0000
  0
VERTEX
  8
51
 10
23.6375
 20
98.1628
 30
0.0000
  0
SEQEND
  8
0
  0
POLYLINE
  8
51
 66
1
 10
0.0000
 20
0.0000
 30
0.0000
 40
0.0100
 41
0.0100
 70
0
  0
VERTEX
  8
51
 10
32.5775
 20
97.3153
 30
0.0000
  0
VERTEX
  8
51
 10
32.5775
 20
99.0153
 30
0.0000
  0
SEQEND
  8
0
  0
POLYLINE
  8
51
 66
1
 10
0.0000
 20
0.0000
 30
0.0000
 40
0.0050
 41
0.0050
 70
0
  0
VERTEX
  8
51
 10
32.5800
 20
99.0153
 30
0.0000
 42
1.0000
  0
VERTEX
  8
51
 10
32.5750
 20
99.0153
 30
0.0000
  0
SEQEND
  8
0
  0
POLYLINE
  8
51
 66
1
 10
0.0000
 20
0.0000
 30
0.0000
 40
0.0050
 41
0.0050
 70
0
  0
VERTEX
  8
51
 10
32.5750
 20
97.3153
 30
0.0000
 42
1.0000
  0
VERTEX
  8
51
 10
32.5800
 20
97.3153
 30
0.0000
  0
SEQEND
  8
0
  0
POLYLINE
  8
51
 66
1
 10
0.0000
 20
0.0000
 30
0.0000
 40
0.0100
 41
0.0100
 70
0
  0
VERTEX
  8
51
 10
32.2775
 20
102.3453
 30
0.0000
  0
VERTEX
  8
51
 10
32.8775
 20
102.3453
 30
0.0000
  0
SEQEND
  8
0
  0
POLYLINE
  8
51
 66
1
 10
0.0000
 20
0.0000
 30
0.0000
 40
0.0050
 41
0.0050
 70
0
  0
VERTEX
  8
51
 10
32.8775
 20
102.3428
 30
0.0000
 42
1.0000
  0
VERTEX
  8
51
 10
32.8775
 20
102.3478
 30
0.0000
  0
SEQEND
  8
0
  0
POLYLINE
  8
51
 66
1
 10
0.0000
 20
0.0000
 30
0.0000
 40
0.0050
 41
0.0050
 70
0
  0
VERTEX
  8
51
 10
32.2775
 20
102.3478
 30
0.0000
 42
1.0000
  0
VERTEX
  8
51
 10
32.2775
 20
102.3428
 30
0.0000
  0
SEQEND
  8
0
  0
POLYLINE
  8
51
 66
1
 10
0.0000
 20
0.0000
 30
0.0000
 40
0.0100
 41
0.0100
 70
0
  0
VERTEX
  8
51
 10
32.5775
 20
101.7452
 30
0.0000
  0
VERTEX
  8
51
 10
32.5775
 20
102.9453
 30
0.0000
  0
SEQEND
  8
0
  0
POLYLINE
  8
51
 66
1
 10
0.0000
 20
0.0000
 30
0.0000
 40
0.0050
 41
0.0050
 70
0
  0
VERTEX
  8
51
 10
32.5800
 20
102.9453
 30
0.0000
 42
1.0000
  0
VERTEX
  8
51
 10
32.5750
 20
102.9453
 30
0.0000
  0
SEQEND
  8
0
  0
POLYLINE
  8
51
 66
1
 10
0.0000
 20
0.0000
 30
0.0000
 40
0.0050
 41
0.0050
 70
0
  0
VERTEX
  8
51
 10
32.5750
 20
101.7452
 30
0.0000
 42
1.0000
  0
VERTEX
  8
51
 10
32.5800
 20
101.7452
 30
0.0000
  0
SEQEND
  8
0
  0
POLYLINE
  8
51
 66
1
 10
0.0000
 20
0.0000
 30
0.0000
 40
0.0100
 41
0.0100
 70
0
  0
VERTEX
  8
51
 10
32.2775
 20
98.1653
 30
0.0000
  0
VERTEX
  8
51
 10
32.8775
 20
98.1653
 30
0.0000
  0
SEQEND
  8
0
  0
POLYLINE
  8
51
 66
1
 10
0.0000
 20
0.0000
 30
0.0000
 40
0.0050
 41
0.0050
 70
0
  0
VERTEX
  8
51
 10
32.8775
 20
98.1628
 30
0.0000
 42
1.0000
  0
VERTEX
  8
51
 10
32.8775
 20
98.1677
 30
0.0000
  0
SEQEND
  8
0
  0
POLYLINE
  8
51
 66
1
 10
0.0000
 20
0.0000
 30
0.0000
 40
0.0050
 41
0.0050
 70
0
  0
VERTEX
  8
51
 10
32.2775
 20
98.1677
 30
0.0000
 42
1.0000
  0
VERTEX
  8
51
 10
32.2775
 20
98.1628
 30
0.0000
  0
SEQEND
  8
0
  0
POLYLINE
  8
51
 66
1
 10
0.0000
 20
0.0000
 30
0.0000
 40
0.0100
 41
0.0100
 70
0
  0
VERTEX
  8
51
 10
23.9375
 20
97.3153
 30
0.0000
  0
VERTEX
  8
51
 10
23.9375
 20
99.0153
 30
0.0000
  0
SEQEND
  8
0
  0
POLYLINE
  8
51
 66
1
 10
0.0000
 20
0.0000
 30
0.0000
 40
0.0050
 41
0.0050
 70
0
  0
VERTEX
  8
51
 10
23.9400
 20
99.0153
 30
0.0000
 42
1.0000
  0
VERTEX
  8
51
 10
23.9350
 20
99.0153
 30
0.0000
  0
SEQEND
  8
0
  0
POLYLINE
  8
51
 66
1
 10
0.0000
 20
0.0000
 30
0.0000
 40
0.0050
 41
0.0050
 70
0
  0
VERTEX
  8
51
 10
23.9350
 20
97.3153
 30
0.0000
 42
1.0000
  0
VERTEX
  8
51
 10
23.9400
 20
97.3153
 30
0.0000
  0
SEQEND
  8
0
  0
CIRCLE
  8
20
 10
25.3675
 20
98.6953
 30
0.0000
 40
0.3250
  0
CIRCLE
  8
20
 10
31.1475
 20
98.6953
 30
0.0000
 40
0.3250
  0
INSERT
  8
51
  2
RECT
 10
162.8204
 20
12.0142
 30
0.0000
 41
0.5080
 42
0.5080
 43
1.0000
 50
0.0000
  0
INSERT
  8
51
  2
RECT
 10
160.2803
 20
12.0142
 30
0.0000
 41
0.5080
 42
0.5080
 43
1.0000
 50
0.0000
  0
INSERT
  8
51
  2
RECT
 10
157.7404
 20
12.0142
 30
0.0000
 41
0.5080
 42
0.5080
 43
1.0000
 50
0.0000
  0
INSERT
  8
51
  2
RECT
 10
155.2004
 20
12.0142
 30
0.0000
 41
0.5080
 42
0.5080
 43
1.0000
 50
0.0000
  0
INSERT
  8
51
  2
RECT
 10
152.6603
 20
12.0142
 30
0.0000
 41
0.5080
 42
0.5080
 43
1.0000
 50
0.0000
  0
LINE
  8
51
 10
4.4450
 20
80.9625
 30
0.0000
 11
4.4450
 21
100.0125
 31
0.0000
  0
LINE
  8
51
 10
4.4450
 20
100.0125
 30
0.0000
 11
23.4950
 21
100.0125
 31
0.0000
  0
LINE
  8
51
 10
23.4950
 20
100.0125
 30
0.0000
 11
23.4950
 21
80.9625
 31
0.0000
  0
LINE
  8
51
 10
23.4950
 20
80.9625
 30
0.0000
 11
4.4450
 21
80.9625
 31
0.0000
  0
CIRCLE
  8
20
 10
13.9700
 20
90.4875
 30
0.0000
 40
1.9939
  0
CIRCLE
  8
20
 10
19.0500
 20
90.4875
 30
0.0000
 40
0.8763
  0
CIRCLE
  8
20
 10
8.8900
 20
90.4875
 30
0.0000
 40
0.8763
  0
CIRCLE
  8
20
 10
10.1600
 20
93.0275
 30
0.0000
 40
1.5240
  0
CIRCLE
  8
20
 10
16.5100
 20
95.5675
 30
0.0000
 40
1.5240
  0
LINE
  8
51
 10
23.4950
 20
80.9625
 30
0.0000
 11
23.4950
 21
100.0125
 31
0.0000
  0
LINE
  8
51
 10
23.4950
 20
100.0125
 30
0.0000
 11
42.5450
 21
100.0125
 31
0.0000
  0
LINE
  8
51
 10
42.5450
 20
100.0125
 30
0.0000
 11
42.5450
 21
80.9625
 31
0.0000
  0
LINE
  8
51
 10
42.5450
 20
80.9625
 30
0.0000
 11
23.4950
 21
80.9625
 31
0.0000
  0
CIRCLE
  8
20
 10
33.0200
 20
90.4875
 30
0.0000
 40
1.9939
  0
CIRCLE
  8
20
 10
38.1000
 20
90.4875
 30
0.0000
 40
0.8763
  0
CIRCLE
  8
20
 10
27.9400
 20
90.4875
 30
0.0000
 40
0.8763
  0
CIRCLE
  8
20
 10
29.2100
 20
93.0275
 30
0.0000
 40
1.5240
  0
CIRCLE
  8
20
 10
35.5600
 20
95.5675
 30
0.0000
 40
1.5240
  0
LINE
  8
51
 10
42.5450
 20
80.9625
 30
0.0000
 11
42.5450
 21
100.0125
 31
0.0000
  0
LINE
  8
51
 10
42.5450
 20
100.0125
 30
0.0000
 11
61.5950
 21
100.0125
 31
0.0000
  0
LINE
  8
51
 10
61.5950
 20
100.0125
 30
0.0000
 11
61.5950
 21
80.9625
 31
0.0000
  0
LINE
  8
51
 10
61.5950
 20
80.9625
 30
0.0000
 11
42.5450
 21
80.9625
 31
0.0000
  0
CIRCLE
  8
20
 10
52.0700
 20
90.4875
 30
0.0000
 40
1.9939
  0
CIRCLE
  8
20
 10
57.1500
 20
90.4875
 30
0.0000
 40
0.8763
  0
CIRCLE
  8
20
 10
46.9900
 20
90.4875
 30
0.0000
 40
0.8763
  0
CIRCLE
  8
20
 10
48.2600
 20
93.0275
 30
0.0000
 40
1.5240
  0
CIRCLE
  8
20
 10
54.6100
 20
95.5675
 30
0.0000
 40
1.5240
  0
LINE
  8
51
 10
61.5950
 20
80.9625
 30
0.0000
 11
61.5950
 21
100.0125
 31
0.0000
  0
LINE
  8
51
 10
61.5950
 20
100.0125
 30
0.0000
 11
80.6450
 21
100.0125
 31
0.0000
  0
LINE
  8
51
 10
80.6450
 20
100.0125
 30
0.0000
 11
80.6450
 21
80.9625
 31
0.0000
  0
LINE
  8
51
 10
80.6450
 20
80.9625
 30
0.0000
 11
61.5950
 21
80.9625
 31
0.0000
  0
CIRCLE
  8
20
 10
71.1200
 20
90.4875
 30
0.0000
 40
1.9939
  0
CIRCLE
  8
20
 10
76.2000
 20
90.4875
 30
0.0000
 40
0.8763
  0
CIRCLE
  8
20
 10
66.0400
 20
90.4875
 30
0.0000
 40
0.8763
  0
CIRCLE
  8
20
 10
67.3100
 20
93.0275
 30
0.0000
 40
1.5240
  0
CIRCLE
  8
20
 10
73.6600
 20
95.5675
 30
0.0000
 40
1.5240
  0
LINE
  8
51
 10
80.6450
 20
80.9625
 30
0.0000
 11
80.6450
 21
100.0125
 31
0.0000
  0
LINE
  8
51
 10
80.6450
 20
100.0125
 30
0.0000
 11
99.6950
 21
100.0125
 31
0.0000
  0
LINE
  8
51
 10
99.6950
 20
100.0125
 30
0.0000
 11
99.6950
 21
80.9625
 31
0.0000
  0
LINE
  8
51
 10
99.6950
 20
80.9625
 30
0.0000
 11
80.6450
 21
80.9625
 31
0.0000
  0
CIRCLE
  8
20
 10
90.1700
 20
90.4875
 30
0.0000
 40
1.9939
  0
CIRCLE
  8
20
 10
95.2500
 20
90.4875
 30
0.0000
 40
0.8763
  0
CIRCLE
  8
20
 10
85.0900
 20
90.4875
 30
0.0000
 40
0.8763
  0
CIRCLE
  8
20
 10
86.3600
 20
93.0275
 30
0.0000
 40
1.5240
  0
CIRCLE
  8
20
 10
92.7100
 20
95.5675
 30
0.0000
 40
1.5240
  0
LINE
  8
51
 10
99.6950
 20
80.9625
 30
0.0000
 11
99.6950
 21
100.0125
 31
0.0000
  0
LINE
  8
51
 10
99.6950
 20
100.0125
 30
0.0000
 11
118.7450
 21
100.0125
 31
0.0000
  0
LINE
  8
51
 10
118.7450
 20
100.0125
 30
0.0000
 11
118.7450
 21
80.9625
 31
0.0000
  0
LINE
  8
51
 10
118.7450
 20
80.9625
 30
0.0000
 11
99.6950
 21
80.9625
 31
0.0000
  0
CIRCLE
  8
20
 10
109.2200
 20
90.4875
 30
0.0000
 40
1.9939
  0
CIRCLE
  8
20
 10
114.3000
 20
90.4875
 30
0.0000
 40
0.8763
  0
CIRCLE
  8
20
 10
104.1400
 20
90.4875
 30
0.0000
 40
0.8763
  0
CIRCLE
  8
20
 10
105.4100
 20
93.0275
 30
0.0000
 40
1.5240
  0
CIRCLE
  8
20
 10
111.7600
 20
95.5675
 30
0.0000
 40
1.5240
  0
LINE
  8
51
 10
118.7450
 20
80.9625
 30
0.0000
 11
118.7450
 21
100.0125
 31
0.0000
  0
LINE
  8
51
 10
118.7450
 20
100.0125
 30
0.0000
 11
137.7950
 21
100.0125
 31
0.0000
  0
LINE
  8
51
 10
137.7950
 20
100.0125
 30
0.0000
 11
137.7950
 21
80.9625
 31
0.0000
  0
LINE
  8
51
 10
137.7950
 20
80.9625
 30
0.0000
 11
118.7450
 21
80.9625
 31
0.0000
  0
CIRCLE
  8
20
 10
128.2700
 20
90.4875
 30
0.0000
 40
1.9939
  0
CIRCLE
  8
20
 10
133.3500
 20
90.4875
 30
0.0000
 40
0.8763
  0
CIRCLE
  8
20
 10
123.1900
 20
90.4875
 30
0.0000
 40
0.8763
  0
CIRCLE
  8
20
 10
124.4600
 20
93.0275
 30
0.0000
 40
1.5240
  0
CIRCLE
  8
20
 10
130.8100
 20
95.5675
 30
0.0000
 40
1.5240
  0
LINE
  8
51
 10
137.7950
 20
80.9625
 30
0.0000
 11
137.7950
 21
100.0125
 31
0.0000
  0
LINE
  8
51
 10
137.7950
 20
100.0125
 30
0.0000
 11
156.8450
 21
100.0125
 31
0.0000
  0
LINE
  8
51
 10
156.8450
 20
100.0125
 30
0.0000
 11
156.8450
 21
80.9625
 31
0.0000
  0
LINE
  8
51
 10
156.8450
 20
80.9625
 30
0.0000
 11
137.7950
 21
80.9625
 31
0.0000
  0
CIRCLE
  8
20
 10
147.3200
 20
90.4875
 30
0.0000
 40
1.9939
  0
CIRCLE
  8
20
 10
152.4000
 20
90.4875
 30
0.0000
 40
0.8763
  0
CIRCLE
  8
20
 10
142.2400
 20
90.4875
 30
0.0000
 40
0.8763
  0
CIRCLE
  8
20
 10
143.5100
 20
93.0275
 30
0.0000
 40
1.5240
  0
CIRCLE
  8
20
 10
149.8600
 20
95.5675
 30
0.0000
 40
1.5240
  0
LINE
  8
51
 10
156.8450
 20
80.9625
 30
0.0000
 11
156.8450
 21
100.0125
 31
0.0000
  0
LINE
  8
51
 10
156.8450
 20
100.0125
 30
0.0000
 11
175.8950
 21
100.0125
 31
0.0000
  0
LINE
  8
51
 10
175.8950
 20
100.0125
 30
0.0000
 11
175.8950
 21
80.9625
 31
0.0000
  0
LINE
  8
51
 10
175.8950
 20
80.9625
 30
0.0000
 11
156.8450
 21
80.9625
 31
0.0000
  0
CIRCLE
  8
20
 10
166.3700
 20
90.4875
 30
0.0000
 40
1.9939
  0
CIRCLE
  8
20
 10
171.4500
 20
90.4875
 30
0.0000
 40
0.8763
  0
CIRCLE
  8
20
 10
161.2900
 20
90.4875
 30
0.0000
 40
0.8763
  0
CIRCLE
  8
20
 10
162.5600
 20
93.0275
 30
0.0000
 40
1.5240
  0
CIRCLE
  8
20
 10
168.9100
 20
95.5675
 30
0.0000
 40
1.5240
  0
LINE
  8
51
 10
175.8950
 20
80.9625
 30
0.0000
 11
175.8950
 21
100.0125
 31
0.0000
  0
LINE
  8
51
 10
175.8950
 20
100.0125
 30
0.0000
 11
194.9450
 21
100.0125
 31
0.0000
  0
LINE
  8
51
 10
194.9450
 20
100.0125
 30
0.0000
 11
194.9450
 21
80.9625
 31
0.0000
  0
LINE
  8
51
 10
194.9450
 20
80.9625
 30
0.0000
 11
175.8950
 21
80.9625
 31
0.0000
  0
CIRCLE
  8
20
 10
185.4200
 20
90.4875
 30
0.0000
 40
1.9939
  0
CIRCLE
  8
20
 10
190.5000
 20
90.4875
 30
0.0000
 40
0.8763
  0
CIRCLE
  8
20
 10
180.3400
 20
90.4875
 30
0.0000
 40
0.8763
  0
CIRCLE
  8
20
 10
181.6100
 20
93.0275
 30
0.0000
 40
1.5240
  0
CIRCLE
  8
20
 10
187.9600
 20
95.5675
 30
0.0000
 40
1.5240
  0
LINE
  8
51
 10
194.9450
 20
80.9625
 30
0.0000
 11
194.9450
 21
100.0125
 31
0.0000
  0
LINE
  8
51
 10
194.9450
 20
100.0125
 30
0.0000
 11
213.9950
 21
100.0125
 31
0.0000
  0
LINE
  8
51
 10
213.9950
 20
100.0125
 30
0.0000
 11
213.9950
 21
80.9625
 31
0.0000
  0
LINE
  8
51
 10
213.9950
 20
80.9625
 30
0.0000
 11
194.9450
 21
80.9625
 31
0.0000
  0
CIRCLE
  8
20
 10
204.4700
 20
90.4875
 30
0.0000
 40
1.9939
  0
CIRCLE
  8
20
 10
209.5500
 20
90.4875
 30
0.0000
 40
0.8763
  0
CIRCLE
  8
20
 10
199.3900
 20
90.4875
 30
0.0000
 40
0.8763
  0
CIRCLE
  8
20
 10
200.6600
 20
93.0275
 30
0.0000
 40
1.5240
  0
CIRCLE
  8
20
 10
207.0100
 20
95.5675
 30
0.0000
 40
1.5240
  0
LINE
  8
51
 10
213.9950
 20
80.9625
 30
0.0000
 11
213.9950
 21
100.0125
 31
0.0000
  0
LINE
  8
51
 10
213.9950
 20
100.0125
 30
0.0000
 11
233.0450
 21
100.0125
 31
0.0000
  0
LINE
  8
51
 10
233.0450
 20
100.0125
 30
0.0000
 11
233.0450
 21
80.9625
 31
0.0000
  0
LINE
  8
51
 10
233.0450
 20
80.9625
 30
0.0000
 11
213.9950
 21
80.9625
 31
0.0000
  0
CIRCLE
  8
20
 10
223.5200
 20
90.4875
 30
0.0000
 40
1.9939
  0
CIRCLE
  8
20
 10
228.6000
 20
90.4875
 30
0.0000
 40
0.8763
  0
CIRCLE
  8
20
 10
218.4400
 20
90.4875
 30
0.0000
 40
0.8763
  0
CIRCLE
  8
20
 10
219.7100
 20
93.0275
 30
0.0000
 40
1.5240
  0
CIRCLE
  8
20
 10
226.0600
 20
95.5675
 30
0.0000
 40
1.5240
  0
LINE
  8
51
 10
233.0450
 20
80.9625
 30
0.0000
 11
233.0450
 21
100.0125
 31
0.0000
  0
LINE
  8
51
 10
233.0450
 20
100.0125
 30
0.0000
 11
252.0950
 21
100.0125
 31
0.0000
  0
LINE
  8
51
 10
252.0950
 20
100.0125
 30
0.0000
 11
252.0950
 21
80.9625
 31
0.0000
  0
LINE
  8
51
 10
252.0950
 20
80.9625
 30
0.0000
 11
233.0450
 21
80.9625
 31
0.0000
  0
CIRCLE
  8
20
 10
242.5700
 20
90.4875
 30
0.0000
 40
1.9939
  0
CIRCLE
  8
20
 10
247.6500
 20
90.4875
 30
0.0000
 40
0.8763
  0
CIRCLE
  8
20
 10
237.4900
 20
90.4875
 30
0.0000
 40
0.8763
  0
CIRCLE
  8
20
 10
238.7600
 20
93.0275
 30
0.0000
 40
1.5240
  0
CIRCLE
  8
20
 10
245.1100
 20
95.5675
 30
0.0000
 40
1.5240
  0
LINE
  8
51
 10
261.6200
 20
80.9625
 30
0.0000
 11
261.6200
 21
100.0125
 31
0.0000
  0
LINE
  8
51
 10
261.6200
 20
100.0125
 30
0.0000
 11
280.6700
 21
100.0125
 31
0.0000
  0
LINE
  8
51
 10
280.6700
 20
100.0125
 30
0.0000
 11
280.6700
 21
80.9625
 31
0.0000
  0
LINE
  8
51
 10
280.6700
 20
80.9625
 30
0.0000
 11
261.6200
 21
80.9625
 31
0.0000
  0
CIRCLE
  8
20
 10
271.1450
 20
90.4875
 30
0.0000
 40
1.9939
  0
CIRCLE
  8
20
 10
276.2250
 20
90.4875
 30
0.0000
 40
0.8763
  0
CIRCLE
  8
20
 10
266.0650
 20
90.4875
 30
0.0000
 40
0.8763
  0
CIRCLE
  8
20
 10
267.3350
 20
93.0275
 30
0.0000
 40
1.5240
  0
CIRCLE
  8
20
 10
273.6850
 20
95.5675
 30
0.0000
 40
1.5240
  0
LINE
  8
51
 10
9.2075
 20
61.9125
 30
0.0000
 11
9.2075
 21
80.9625
 31
0.0000
  0
LINE
  8
51
 10
9.2075
 20
80.9625
 30
0.0000
 11
28.2575
 21
80.9625
 31
0.0000
  0
LINE
  8
51
 10
28.2575
 20
80.9625
 30
0.0000
 11
28.2575
 21
61.9125
 31
0.0000
  0
LINE
  8
51
 10
28.2575
 20
61.9125
 30
0.0000
 11
9.2075
 21
61.9125
 31
0.0000
  0
CIRCLE
  8
20
 10
18.7325
 20
71.4375
 30
0.0000
 40
1.9939
  0
CIRCLE
  8
20
 10
23.8125
 20
71.4375
 30
0.0000
 40
0.8763
  0
CIRCLE
  8
20
 10
13.6525
 20
71.4375
 30
0.0000
 40
0.8763
  0
CIRCLE
  8
20
 10
14.9225
 20
73.9775
 30
0.0000
 40
1.5240
  0
CIRCLE
  8
20
 10
21.2725
 20
76.5175
 30
0.0000
 40
1.5240
  0
LINE
  8
51
 10
33.0200
 20
61.9125
 30
0.0000
 11
33.0200
 21
80.9625
 31
0.0000
  0
LINE
  8
51
 10
33.0200
 20
80.9625
 30
0.0000
 11
52.0700
 21
80.9625
 31
0.0000
  0
LINE
  8
51
 10
52.0700
 20
80.9625
 30
0.0000
 11
52.0700
 21
61.9125
 31
0.0000
  0
LINE
  8
51
 10
52.0700
 20
61.9125
 30
0.0000
 11
33.0200
 21
61.9125
 31
0.0000
  0
CIRCLE
  8
20
 10
42.5450
 20
71.4375
 30
0.0000
 40
1.9939
  0
CIRCLE
  8
20
 10
47.6250
 20
71.4375
 30
0.0000
 40
0.8763
  0
CIRCLE
  8
20
 10
37.4650
 20
71.4375
 30
0.0000
 40
0.8763
  0
CIRCLE
  8
20
 10
38.7350
 20
73.9775
 30
0.0000
 40
1.5240
  0
CIRCLE
  8
20
 10
45.0850
 20
76.5175
 30
0.0000
 40
1.5240
  0
LINE
  8
51
 10
52.0700
 20
61.9125
 30
0.0000
 11
52.0700
 21
80.9625
 31
0.0000
  0
LINE
  8
51
 10
52.0700
 20
80.9625
 30
0.0000
 11
71.1200
 21
80.9625
 31
0.0000
  0
LINE
  8
51
 10
71.1200
 20
80.9625
 30
0.0000
 11
71.1200
 21
61.9125
 31
0.0000
  0
LINE
  8
51
 10
71.1200
 20
61.9125
 30
0.0000
 11
52.0700
 21
61.9125
 31
0.0000
  0
CIRCLE
  8
20
 10
61.5950
 20
71.4375
 30
0.0000
 40
1.9939
  0
CIRCLE
  8
20
 10
66.6750
 20
71.4375
 30
0.0000
 40
0.8763
  0
CIRCLE
  8
20
 10
56.5150
 20
71.4375
 30
0.0000
 40
0.8763
  0
CIRCLE
  8
20
 10
57.7850
 20
73.9775
 30
0.0000
 40
1.5240
  0
CIRCLE
  8
20
 10
64.1350
 20
76.5175
 30
0.0000
 40
1.5240
  0
LINE
  8
51
 10
71.1200
 20
61.9125
 30
0.0000
 11
71.1200
 21
80.9625
 31
0.0000
  0
LINE
  8
51
 10
71.1200
 20
80.9625
 30
0.0000
 11
90.1700
 21
80.9625
 31
0.0000
  0
LINE
  8
51
 10
90.1700
 20
80.9625
 30
0.0000
 11
90.1700
 21
61.9125
 31
0.0000
  0
LINE
  8
51
 10
90.1700
 20
61.9125
 30
0.0000
 11
71.1200
 21
61.9125
 31
0.0000
  0
CIRCLE
  8
20
 10
80.6450
 20
71.4375
 30
0.0000
 40
1.9939
  0
CIRCLE
  8
20
 10
85.7250
 20
71.4375
 30
0.0000
 40
0.8763
  0
CIRCLE
  8
20
 10
75.5650
 20
71.4375
 30
0.0000
 40
0.8763
  0
CIRCLE
  8
20
 10
76.8350
 20
73.9775
 30
0.0000
 40
1.5240
  0
CIRCLE
  8
20
 10
83.1850
 20
76.5175
 30
0.0000
 40
1.5240
  0
LINE
  8
51
 10
90.1700
 20
61.9125
 30
0.0000
 11
90.1700
 21
80.9625
 31
0.0000
  0
LINE
  8
51
 10
90.1700
 20
80.9625
 30
0.0000
 11
109.2200
 21
80.9625
 31
0.0000
  0
LINE
  8
51
 10
109.2200
 20
80.9625
 30
0.0000
 11
109.2200
 21
61.9125
 31
0.0000
  0
LINE
  8
51
 10
109.2200
 20
61.9125
 30
0.0000
 11
90.1700
 21
61.9125
 31
0.0000
  0
CIRCLE
  8
20
 10
99.6950
 20
71.4375
 30
0.0000
 40
1.9939
  0
CIRCLE
  8
20
 10
104.7750
 20
71.4375
 30
0.0000
 40
0.8763
  0
CIRCLE
  8
20
 10
94.6150
 20
71.4375
 30
0.0000
 40
0.8763
  0
CIRCLE
  8
20
 10
95.8850
 20
73.9775
 30
0.0000
 40
1.5240
  0
CIRCLE
  8
20
 10
102.2350
 20
76.5175
 30
0.0000
 40
1.5240
  0
LINE
  8
51
 10
109.2200
 20
61.9125
 30
0.0000
 11
109.2200
 21
80.9625
 31
0.0000
  0
LINE
  8
51
 10
109.2200
 20
80.9625
 30
0.0000
 11
128.2700
 21
80.9625
 31
0.0000
  0
LINE
  8
51
 10
128.2700
 20
80.9625
 30
0.0000
 11
128.2700
 21
61.9125
 31
0.0000
  0
LINE
  8
51
 10
128.2700
 20
61.9125
 30
0.0000
 11
109.2200
 21
61.9125
 31
0.0000
  0
CIRCLE
  8
20
 10
118.7450
 20
71.4375
 30
0.0000
 40
1.9939
  0
CIRCLE
  8
20
 10
123.8250
 20
71.4375
 30
0.0000
 40
0.8763
  0
CIRCLE
  8
20
 10
113.6650
 20
71.4375
 30
0.0000
 40
0.8763
  0
CIRCLE
  8
20
 10
114.9350
 20
73.9775
 30
0.0000
 40
1.5240
  0
CIRCLE
  8
20
 10
121.2850
 20
76.5175
 30
0.0000
 40
1.5240
  0
LINE
  8
51
 10
128.2700
 20
61.9125
 30
0.0000
 11
128.2700
 21
80.9625
 31
0.0000
  0
LINE
  8
51
 10
128.2700
 20
80.9625
 30
0.0000
 11
147.3200
 21
80.9625
 31
0.0000
  0
LINE
  8
51
 10
147.3200
 20
80.9625
 30
0.0000
 11
147.3200
 21
61.9125
 31
0.0000
  0
LINE
  8
51
 10
147.3200
 20
61.9125
 30
0.0000
 11
128.2700
 21
61.9125
 31
0.0000
  0
CIRCLE
  8
20
 10
137.7950
 20
71.4375
 30
0.0000
 40
1.9939
  0
CIRCLE
  8
20
 10
142.8750
 20
71.4375
 30
0.0000
 40
0.8763
  0
CIRCLE
  8
20
 10
132.7150
 20
71.4375
 30
0.0000
 40
0.8763
  0
CIRCLE
  8
20
 10
133.9850
 20
73.9775
 30
0.0000
 40
1.5240
  0
CIRCLE
  8
20
 10
140.3350
 20
76.5175
 30
0.0000
 40
1.5240
  0
LINE
  8
51
 10
147.3200
 20
61.9125
 30
0.0000
 11
147.3200
 21
80.9625
 31
0.0000
  0
LINE
  8
51
 10
147.3200
 20
80.9625
 30
0.0000
 11
166.3700
 21
80.9625
 31
0.0000
  0
LINE
  8
51
 10
166.3700
 20
80.9625
 30
0.0000
 11
166.3700
 21
61.9125
 31
0.0000
  0
LINE
  8
51
 10
166.3700
 20
61.9125
 30
0.0000
 11
147.3200
 21
61.9125
 31
0.0000
  0
CIRCLE
  8
20
 10
156.8450
 20
71.4375
 30
0.0000
 40
1.9939
  0
CIRCLE
  8
20
 10
161.9250
 20
71.4375
 30
0.0000
 40
0.8763
  0
CIRCLE
  8
20
 10
151.7650
 20
71.4375
 30
0.0000
 40
0.8763
  0
CIRCLE
  8
20
 10
153.0350
 20
73.9775
 30
0.0000
 40
1.5240
  0
CIRCLE
  8
20
 10
159.3850
 20
76.5175
 30
0.0000
 40
1.5240
  0
LINE
  8
51
 10
166.3954
 20
61.9125
 30
0.0000
 11
166.3954
 21
80.9625
 31
0.0000
  0
LINE
  8
51
 10
166.3954
 20
80.9625
 30
0.0000
 11
185.4454
 21
80.9625
 31
0.0000
  0
LINE
  8
51
 10
185.4454
 20
80.9625
 30
0.0000
 11
185.4454
 21
61.9125
 31
0.0000
  0
LINE
  8
51
 10
185.4454
 20
61.9125
 30
0.0000
 11
166.3954
 21
61.9125
 31
0.0000
  0
CIRCLE
  8
20
 10
175.9204
 20
71.4375
 30
0.0000
 40
1.9939
  0
CIRCLE
  8
20
 10
181.0004
 20
71.4375
 30
0.0000
 40
0.8763
  0
CIRCLE
  8
20
 10
170.8404
 20
71.4375
 30
0.0000
 40
0.8763
  0
CIRCLE
  8
20
 10
172.1104
 20
73.9775
 30
0.0000
 40
1.5240
  0
CIRCLE
  8
20
 10
178.4604
 20
76.5175
 30
0.0000
 40
1.5240
  0
LINE
  8
51
 10
185.4200
 20
61.9125
 30
0.0000
 11
185.4200
 21
80.9625
 31
0.0000
  0
LINE
  8
51
 10
185.4200
 20
80.9625
 30
0.0000
 11
204.4700
 21
80.9625
 31
0.0000
  0
LINE
  8
51
 10
204.4700
 20
80.9625
 30
0.0000
 11
204.4700
 21
61.9125
 31
0.0000
  0
LINE
  8
51
 10
204.4700
 20
61.9125
 30
0.0000
 11
185.4200
 21
61.9125
 31
0.0000
  0
CIRCLE
  8
20
 10
194.9450
 20
71.4375
 30
0.0000
 40
1.9939
  0
CIRCLE
  8
20
 10
200.0250
 20
71.4375
 30
0.0000
 40
0.8763
  0
CIRCLE
  8
20
 10
189.8650
 20
71.4375
 30
0.0000
 40
0.8763
  0
CIRCLE
  8
20
 10
191.1350
 20
73.9775
 30
0.0000
 40
1.5240
  0
CIRCLE
  8
20
 10
197.4850
 20
76.5175
 30
0.0000
 40
1.5240
  0
LINE
  8
51
 10
204.4700
 20
61.9125
 30
0.0000
 11
204.4700
 21
80.9625
 31
0.0000
  0
LINE
  8
51
 10
204.4700
 20
80.9625
 30
0.0000
 11
223.5200
 21
80.9625
 31
0.0000
  0
LINE
  8
51
 10
223.5200
 20
80.9625
 30
0.0000
 11
223.5200
 21
61.9125
 31
0.0000
  0
LINE
  8
51
 10
223.5200
 20
61.9125
 30
0.0000
 11
204.4700
 21
61.9125
 31
0.0000
  0
CIRCLE
  8
20
 10
213.9950
 20
71.4375
 30
0.0000
 40
1.9939
  0
CIRCLE
  8
20
 10
219.0750
 20
71.4375
 30
0.0000
 40
0.8763
  0
CIRCLE
  8
20
 10
208.9150
 20
71.4375
 30
0.0000
 40
0.8763
  0
CIRCLE
  8
20
 10
210.1850
 20
73.9775
 30
0.0000
 40
1.5240
  0
CIRCLE
  8
20
 10
216.5350
 20
76.5175
 30
0.0000
 40
1.5240
  0
LINE
  8
51
 10
223.5200
 20
61.9125
 30
0.0000
 11
223.5200
 21
80.9625
 31
0.0000
  0
LINE
  8
51
 10
223.5200
 20
80.9625
 30
0.0000
 11
242.5700
 21
80.9625
 31
0.0000
  0
LINE
  8
51
 10
242.5700
 20
80.9625
 30
0.0000
 11
242.5700
 21
61.9125
 31
0.0000
  0
LINE
  8
51
 10
242.5700
 20
61.9125
 30
0.0000
 11
223.5200
 21
61.9125
 31
0.0000
  0
CIRCLE
  8
20
 10
233.0450
 20
71.4375
 30
0.0000
 40
1.9939
  0
CIRCLE
  8
20
 10
238.1250
 20
71.4375
 30
0.0000
 40
0.8763
  0
CIRCLE
  8
20
 10
227.9650
 20
71.4375
 30
0.0000
 40
0.8763
  0
CIRCLE
  8
20
 10
229.2350
 20
73.9775
 30
0.0000
 40
1.5240
  0
CIRCLE
  8
20
 10
235.5850
 20
76.5175
 30
0.0000
 40
1.5240
  0
LINE
  8
51
 10
242.5700
 20
61.9125
 30
0.0000
 11
242.5700
 21
80.9625
 31
0.0000
  0
LINE
  8
51
 10
242.5700
 20
80.9625
 30
0.0000
 11
261.6200
 21
80.9625
 31
0.0000
  0
LINE
  8
51
 10
261.6200
 20
80.9625
 30
0.0000
 11
261.6200
 21
61.9125
 31
0.0000
  0
LINE
  8
51
 10
261.6200
 20
61.9125
 30
0.0000
 11
242.5700
 21
61.9125
 31
0.0000
  0
CIRCLE
  8
20
 10
252.0950
 20
71.4375
 30
0.0000
 40
1.9939
  0
CIRCLE
  8
20
 10
257.1750
 20
71.4375
 30
0.0000
 40
0.8763
  0
CIRCLE
  8
20
 10
247.0150
 20
71.4375
 30
0.0000
 40
0.8763
  0
CIRCLE
  8
20
 10
248.2850
 20
73.9775
 30
0.0000
 40
1.5240
  0
CIRCLE
  8
20
 10
254.6350
 20
76.5175
 30
0.0000
 40
1.5240
  0
LINE
  8
51
 10
266.3825
 20
61.9125
 30
0.0000
 11
266.3825
 21
80.9625
 31
0.0000
  0
LINE
  8
51
 10
266.3825
 20
80.9625
 30
0.0000
 11
285.4325
 21
80.9625
 31
0.0000
  0
LINE
  8
51
 10
285.4325
 20
80.9625
 30
0.0000
 11
285.4325
 21
61.9125
 31
0.0000
  0
LINE
  8
51
 10
285.4325
 20
61.9125
 30
0.0000
 11
266.3825
 21
61.9125
 31
0.0000
  0
CIRCLE
  8
20
 10
275.9075
 20
71.4375
 30
0.0000
 40
1.9939
  0
CIRCLE
  8
20
 10
280.9875
 20
71.4375
 30
0.0000
 40
0.8763
  0
CIRCLE
  8
20
 10
270.8275
 20
71.4375
 30
0.0000
 40
0.8763
  0
CIRCLE
  8
20
 10
272.0975
 20
73.9775
 30
0.0000
 40
1.5240
  0
CIRCLE
  8
20
 10
278.4475
 20
76.5175
 30
0.0000
 40
1.5240
  0
LINE
  8
51
 10
11.5888
 20
42.8625
 30
0.0000
 11
11.5888
 21
61.9125
 31
0.0000
  0
LINE
  8
51
 10
11.5888
 20
61.9125
 30
0.0000
 11
30.6388
 21
61.9125
 31
0.0000
  0
LINE
  8
51
 10
30.6388
 20
61.9125
 30
0.0000
 11
30.6388
 21
42.8625
 31
0.0000
  0
LINE
  8
51
 10
30.6388
 20
42.8625
 30
0.0000
 11
11.5888
 21
42.8625
 31
0.0000
  0
CIRCLE
  8
20
 10
21.1137
 20
52.3875
 30
0.0000
 40
1.9939
  0
CIRCLE
  8
20
 10
26.1938
 20
52.3875
 30
0.0000
 40
0.8763
  0
CIRCLE
  8
20
 10
16.0338
 20
52.3875
 30
0.0000
 40
0.8763
  0
CIRCLE
  8
20
 10
17.3038
 20
54.9275
 30
0.0000
 40
1.5240
  0
CIRCLE
  8
20
 10
23.6538
 20
57.4675
 30
0.0000
 40
1.5240
  0
LINE
  8
51
 10
37.7825
 20
42.8625
 30
0.0000
 11
37.7825
 21
61.9125
 31
0.0000
  0
LINE
  8
51
 10
37.7825
 20
61.9125
 30
0.0000
 11
56.8325
 21
61.9125
 31
0.0000
  0
LINE
  8
51
 10
56.8325
 20
61.9125
 30
0.0000
 11
56.8325
 21
42.8625
 31
0.0000
  0
LINE
  8
51
 10
56.8325
 20
42.8625
 30
0.0000
 11
37.7825
 21
42.8625
 31
0.0000
  0
CIRCLE
  8
20
 10
47.3075
 20
52.3875
 30
0.0000
 40
1.9939
  0
CIRCLE
  8
20
 10
52.3875
 20
52.3875
 30
0.0000
 40
0.8763
  0
CIRCLE
  8
20
 10
42.2275
 20
52.3875
 30
0.0000
 40
0.8763
  0
CIRCLE
  8
20
 10
43.4975
 20
54.9275
 30
0.0000
 40
1.5240
  0
CIRCLE
  8
20
 10
49.8475
 20
57.4675
 30
0.0000
 40
1.5240
  0
LINE
  8
51
 10
56.8325
 20
42.8625
 30
0.0000
 11
56.8325
 21
61.9125
 31
0.0000
  0
LINE
  8
51
 10
56.8325
 20
61.9125
 30
0.0000
 11
75.8825
 21
61.9125
 31
0.0000
  0
LINE
  8
51
 10
75.8825
 20
61.9125
 30
0.0000
 11
75.8825
 21
42.8625
 31
0.0000
  0
LINE
  8
51
 10
75.8825
 20
42.8625
 30
0.0000
 11
56.8325
 21
42.8625
 31
0.0000
  0
CIRCLE
  8
20
 10
66.3575
 20
52.3875
 30
0.0000
 40
1.9939
  0
CIRCLE
  8
20
 10
71.4375
 20
52.3875
 30
0.0000
 40
0.8763
  0
CIRCLE
  8
20
 10
61.2775
 20
52.3875
 30
0.0000
 40
0.8763
  0
CIRCLE
  8
20
 10
62.5475
 20
54.9275
 30
0.0000
 40
1.5240
  0
CIRCLE
  8
20
 10
68.8975
 20
57.4675
 30
0.0000
 40
1.5240
  0
LINE
  8
51
 10
75.8825
 20
42.8625
 30
0.0000
 11
75.8825
 21
61.9125
 31
0.0000
  0
LINE
  8
51
 10
75.8825
 20
61.9125
 30
0.0000
 11
94.9325
 21
61.9125
 31
0.0000
  0
LINE
  8
51
 10
94.9325
 20
61.9125
 30
0.0000
 11
94.9325
 21
42.8625
 31
0.0000
  0
LINE
  8
51
 10
94.9325
 20
42.8625
 30
0.0000
 11
75.8825
 21
42.8625
 31
0.0000
  0
CIRCLE
  8
20
 10
85.4075
 20
52.3875
 30
0.0000
 40
1.9939
  0
CIRCLE
  8
20
 10
90.4875
 20
52.3875
 30
0.0000
 40
0.8763
  0
CIRCLE
  8
20
 10
80.3275
 20
52.3875
 30
0.0000
 40
0.8763
  0
CIRCLE
  8
20
 10
81.5975
 20
54.9275
 30
0.0000
 40
1.5240
  0
CIRCLE
  8
20
 10
87.9475
 20
57.4675
 30
0.0000
 40
1.5240
  0
LINE
  8
51
 10
94.9325
 20
42.8625
 30
0.0000
 11
94.9325
 21
61.9125
 31
0.0000
  0
LINE
  8
51
 10
94.9325
 20
61.9125
 30
0.0000
 11
113.9825
 21
61.9125
 31
0.0000
  0
LINE
  8
51
 10
113.9825
 20
61.9125
 30
0.0000
 11
113.9825
 21
42.8625
 31
0.0000
  0
LINE
  8
51
 10
113.9825
 20
42.8625
 30
0.0000
 11
94.9325
 21
42.8625
 31
0.0000
  0
CIRCLE
  8
20
 10
104.4575
 20
52.3875
 30
0.0000
 40
1.9939
  0
CIRCLE
  8
20
 10
109.5375
 20
52.3875
 30
0.0000
 40
0.8763
  0
CIRCLE
  8
20
 10
99.3775
 20
52.3875
 30
0.0000
 40
0.8763
  0
CIRCLE
  8
20
 10
100.6475
 20
54.9275
 30
0.0000
 40
1.5240
  0
CIRCLE
  8
20
 10
106.9975
 20
57.4675
 30
0.0000
 40
1.5240
  0
LINE
  8
51
 10
113.9825
 20
42.8625
 30
0.0000
 11
113.9825
 21
61.9125
 31
0.0000
  0
LINE
  8
51
 10
113.9825
 20
61.9125
 30
0.0000
 11
133.0325
 21
61.9125
 31
0.0000
  0
LINE
  8
51
 10
133.0325
 20
61.9125
 30
0.0000
 11
133.0325
 21
42.8625
 31
0.0000
  0
LINE
  8
51
 10
133.0325
 20
42.8625
 30
0.0000
 11
113.9825
 21
42.8625
 31
0.0000
  0
CIRCLE
  8
20
 10
123.5075
 20
52.3875
 30
0.0000
 40
1.9939
  0
CIRCLE
  8
20
 10
128.5875
 20
52.3875
 30
0.0000
 40
0.8763
  0
CIRCLE
  8
20
 10
118.4275
 20
52.3875
 30
0.0000
 40
0.8763
  0
CIRCLE
  8
20
 10
119.6975
 20
54.9275
 30
0.0000
 40
1.5240
  0
CIRCLE
  8
20
 10
126.0475
 20
57.4675
 30
0.0000
 40
1.5240
  0
LINE
  8
51
 10
133.0325
 20
42.8625
 30
0.0000
 11
133.0325
 21
61.9125
 31
0.0000
  0
LINE
  8
51
 10
133.0325
 20
61.9125
 30
0.0000
 11
152.0825
 21
61.9125
 31
0.0000
  0
LINE
  8
51
 10
152.0825
 20
61.9125
 30
0.0000
 11
152.0825
 21
42.8625
 31
0.0000
  0
LINE
  8
51
 10
152.0825
 20
42.8625
 30
0.0000
 11
133.0325
 21
42.8625
 31
0.0000
  0
CIRCLE
  8
20
 10
142.5575
 20
52.3875
 30
0.0000
 40
1.9939
  0
CIRCLE
  8
20
 10
147.6375
 20
52.3875
 30
0.0000
 40
0.8763
  0
CIRCLE
  8
20
 10
137.4775
 20
52.3875
 30
0.0000
 40
0.8763
  0
CIRCLE
  8
20
 10
138.7475
 20
54.9275
 30
0.0000
 40
1.5240
  0
CIRCLE
  8
20
 10
145.0975
 20
57.4675
 30
0.0000
 40
1.5240
  0
LINE
  8
51
 10
152.0825
 20
42.8625
 30
0.0000
 11
152.0825
 21
61.9125
 31
0.0000
  0
LINE
  8
51
 10
152.0825
 20
61.9125
 30
0.0000
 11
171.1325
 21
61.9125
 31
0.0000
  0
LINE
  8
51
 10
171.1325
 20
61.9125
 30
0.0000
 11
171.1325
 21
42.8625
 31
0.0000
  0
LINE
  8
51
 10
171.1325
 20
42.8625
 30
0.0000
 11
152.0825
 21
42.8625
 31
0.0000
  0
CIRCLE
  8
20
 10
161.6075
 20
52.3875
 30
0.0000
 40
1.9939
  0
CIRCLE
  8
20
 10
166.6875
 20
52.3875
 30
0.0000
 40
0.8763
  0
CIRCLE
  8
20
 10
156.5275
 20
52.3875
 30
0.0000
 40
0.8763
  0
CIRCLE
  8
20
 10
157.7975
 20
54.9275
 30
0.0000
 40
1.5240
  0
CIRCLE
  8
20
 10
164.1475
 20
57.4675
 30
0.0000
 40
1.5240
  0
LINE
  8
51
 10
171.1325
 20
42.8625
 30
0.0000
 11
171.1325
 21
61.9125
 31
0.0000
  0
LINE
  8
51
 10
171.1325
 20
61.9125
 30
0.0000
 11
190.1825
 21
61.9125
 31
0.0000
  0
LINE
  8
51
 10
190.1825
 20
61.9125
 30
0.0000
 11
190.1825
 21
42.8625
 31
0.0000
  0
LINE
  8
51
 10
190.1825
 20
42.8625
 30
0.0000
 11
171.1325
 21
42.8625
 31
0.0000
  0
CIRCLE
  8
20
 10
180.6575
 20
52.3875
 30
0.0000
 40
1.9939
  0
CIRCLE
  8
20
 10
185.7375
 20
52.3875
 30
0.0000
 40
0.8763
  0
CIRCLE
  8
20
 10
175.5775
 20
52.3875
 30
0.0000
 40
0.8763
  0
CIRCLE
  8
20
 10
176.8475
 20
54.9275
 30
0.0000
 40
1.5240
  0
CIRCLE
  8
20
 10
183.1975
 20
57.4675
 30
0.0000
 40
1.5240
  0
LINE
  8
51
 10
190.1825
 20
42.8625
 30
0.0000
 11
190.1825
 21
61.9125
 31
0.0000
  0
LINE
  8
51
 10
190.1825
 20
61.9125
 30
0.0000
 11
209.2325
 21
61.9125
 31
0.0000
  0
LINE
  8
51
 10
209.2325
 20
61.9125
 30
0.0000
 11
209.2325
 21
42.8625
 31
0.0000
  0
LINE
  8
51
 10
209.2325
 20
42.8625
 30
0.0000
 11
190.1825
 21
42.8625
 31
0.0000
  0
CIRCLE
  8
20
 10
199.7075
 20
52.3875
 30
0.0000
 40
1.9939
  0
CIRCLE
  8
20
 10
204.7875
 20
52.3875
 30
0.0000
 40
0.8763
  0
CIRCLE
  8
20
 10
194.6275
 20
52.3875
 30
0.0000
 40
0.8763
  0
CIRCLE
  8
20
 10
195.8975
 20
54.9275
 30
0.0000
 40
1.5240
  0
CIRCLE
  8
20
 10
202.2475
 20
57.4675
 30
0.0000
 40
1.5240
  0
LINE
  8
51
 10
209.2325
 20
42.8625
 30
0.0000
 11
209.2325
 21
61.9125
 31
0.0000
  0
LINE
  8
51
 10
209.2325
 20
61.9125
 30
0.0000
 11
228.2825
 21
61.9125
 31
0.0000
  0
LINE
  8
51
 10
228.2825
 20
61.9125
 30
0.0000
 11
228.2825
 21
42.8625
 31
0.0000
  0
LINE
  8
51
 10
228.2825
 20
42.8625
 30
0.0000
 11
209.2325
 21
42.8625
 31
0.0000
  0
CIRCLE
  8
20
 10
218.7575
 20
52.3875
 30
0.0000
 40
1.9939
  0
CIRCLE
  8
20
 10
223.8375
 20
52.3875
 30
0.0000
 40
0.8763
  0
CIRCLE
  8
20
 10
213.6775
 20
52.3875
 30
0.0000
 40
0.8763
  0
CIRCLE
  8
20
 10
214.9475
 20
54.9275
 30
0.0000
 40
1.5240
  0
CIRCLE
  8
20
 10
221.2975
 20
57.4675
 30
0.0000
 40
1.5240
  0
LINE
  8
51
 10
228.2825
 20
42.8625
 30
0.0000
 11
228.2825
 21
61.9125
 31
0.0000
  0
LINE
  8
51
 10
228.2825
 20
61.9125
 30
0.0000
 11
247.3325
 21
61.9125
 31
0.0000
  0
LINE
  8
51
 10
247.3325
 20
61.9125
 30
0.0000
 11
247.3325
 21
42.8625
 31
0.0000
  0
LINE
  8
51
 10
247.3325
 20
42.8625
 30
0.0000
 11
228.2825
 21
42.8625
 31
0.0000
  0
CIRCLE
  8
20
 10
237.8075
 20
52.3875
 30
0.0000
 40
1.9939
  0
CIRCLE
  8
20
 10
242.8875
 20
52.3875
 30
0.0000
 40
0.8763
  0
CIRCLE
  8
20
 10
232.7275
 20
52.3875
 30
0.0000
 40
0.8763
  0
CIRCLE
  8
20
 10
233.9975
 20
54.9275
 30
0.0000
 40
1.5240
  0
CIRCLE
  8
20
 10
240.3475
 20
57.4675
 30
0.0000
 40
1.5240
  0
LINE
  8
51
 10
259.2388
 20
42.8625
 30
0.0000
 11
259.2388
 21
61.9125
 31
0.0000
  0
LINE
  8
51
 10
259.2388
 20
61.9125
 30
0.0000
 11
278.2887
 21
61.9125
 31
0.0000
  0
LINE
  8
51
 10
278.2887
 20
61.9125
 30
0.0000
 11
278.2887
 21
42.8625
 31
0.0000
  0
LINE
  8
51
 10
278.2887
 20
42.8625
 30
0.0000
 11
259.2388
 21
42.8625
 31
0.0000
  0
CIRCLE
  8
20
 10
268.7638
 20
52.3875
 30
0.0000
 40
1.9939
  0
CIRCLE
  8
20
 10
273.8438
 20
52.3875
 30
0.0000
 40
0.8763
  0
CIRCLE
  8
20
 10
263.6838
 20
52.3875
 30
0.0000
 40
0.8763
  0
CIRCLE
  8
20
 10
264.9538
 20
54.9275
 30
0.0000
 40
1.5240
  0
CIRCLE
  8
20
 10
271.3038
 20
57.4675
 30
0.0000
 40
1.5240
  0
LINE
  8
51
 10
16.3513
 20
23.8125
 30
0.0000
 11
16.3513
 21
42.8625
 31
0.0000
  0
LINE
  8
51
 10
16.3513
 20
42.8625
 30
0.0000
 11
35.4013
 21
42.8625
 31
0.0000
  0
LINE
  8
51
 10
35.4013
 20
42.8625
 30
0.0000
 11
35.4013
 21
23.8125
 31
0.0000
  0
LINE
  8
51
 10
35.4013
 20
23.8125
 30
0.0000
 11
16.3513
 21
23.8125
 31
0.0000
  0
CIRCLE
  8
20
 10
25.8763
 20
33.3375
 30
0.0000
 40
1.9939
  0
CIRCLE
  8
20
 10
30.9563
 20
33.3375
 30
0.0000
 40
0.8763
  0
CIRCLE
  8
20
 10
20.7963
 20
33.3375
 30
0.0000
 40
0.8763
  0
CIRCLE
  8
20
 10
22.0663
 20
35.8775
 30
0.0000
 40
1.5240
  0
CIRCLE
  8
20
 10
28.4163
 20
38.4175
 30
0.0000
 40
1.5240
  0
LINE
  8
51
 10
47.3075
 20
23.8125
 30
0.0000
 11
47.3075
 21
42.8625
 31
0.0000
  0
LINE
  8
51
 10
47.3075
 20
42.8625
 30
0.0000
 11
66.3575
 21
42.8625
 31
0.0000
  0
LINE
  8
51
 10
66.3575
 20
42.8625
 30
0.0000
 11
66.3575
 21
23.8125
 31
0.0000
  0
LINE
  8
51
 10
66.3575
 20
23.8125
 30
0.0000
 11
47.3075
 21
23.8125
 31
0.0000
  0
CIRCLE
  8
20
 10
56.8325
 20
33.3375
 30
0.0000
 40
1.9939
  0
CIRCLE
  8
20
 10
61.9125
 20
33.3375
 30
0.0000
 40
0.8763
  0
CIRCLE
  8
20
 10
51.7525
 20
33.3375
 30
0.0000
 40
0.8763
  0
CIRCLE
  8
20
 10
53.0225
 20
35.8775
 30
0.0000
 40
1.5240
  0
CIRCLE
  8
20
 10
59.3725
 20
38.4175
 30
0.0000
 40
1.5240
  0
LINE
  8
51
 10
66.3575
 20
23.8125
 30
0.0000
 11
66.3575
 21
42.8625
 31
0.0000
  0
LINE
  8
51
 10
66.3575
 20
42.8625
 30
0.0000
 11
85.4075
 21
42.8625
 31
0.0000
  0
LINE
  8
51
 10
85.4075
 20
42.8625
 30
0.0000
 11
85.4075
 21
23.8125
 31
0.0000
  0
LINE
  8
51
 10
85.4075
 20
23.8125
 30
0.0000
 11
66.3575
 21
23.8125
 31
0.0000
  0
CIRCLE
  8
20
 10
75.8825
 20
33.3375
 30
0.0000
 40
1.9939
  0
CIRCLE
  8
20
 10
80.9625
 20
33.3375
 30
0.0000
 40
0.8763
  0
CIRCLE
  8
20
 10
70.8025
 20
33.3375
 30
0.0000
 40
0.8763
  0
CIRCLE
  8
20
 10
72.0725
 20
35.8775
 30
0.0000
 40
1.5240
  0
CIRCLE
  8
20
 10
78.4225
 20
38.4175
 30
0.0000
 40
1.5240
  0
LINE
  8
51
 10
85.4075
 20
23.8125
 30
0.0000
 11
85.4075
 21
42.8625
 31
0.0000
  0
LINE
  8
51
 10
85.4075
 20
42.8625
 30
0.0000
 11
104.4575
 21
42.8625
 31
0.0000
  0
LINE
  8
51
 10
104.4575
 20
42.8625
 30
0.0000
 11
104.4575
 21
23.8125
 31
0.0000
  0
LINE
  8
51
 10
104.4575
 20
23.8125
 30
0.0000
 11
85.4075
 21
23.8125
 31
0.0000
  0
CIRCLE
  8
20
 10
94.9325
 20
33.3375
 30
0.0000
 40
1.9939
  0
CIRCLE
  8
20
 10
100.0125
 20
33.3375
 30
0.0000
 40
0.8763
  0
CIRCLE
  8
20
 10
89.8525
 20
33.3375
 30
0.0000
 40
0.8763
  0
CIRCLE
  8
20
 10
91.1225
 20
35.8775
 30
0.0000
 40
1.5240
  0
CIRCLE
  8
20
 10
97.4725
 20
38.4175
 30
0.0000
 40
1.5240
  0
LINE
  8
51
 10
104.4575
 20
23.8125
 30
0.0000
 11
104.4575
 21
42.8625
 31
0.0000
  0
LINE
  8
51
 10
104.4575
 20
42.8625
 30
0.0000
 11
123.5075
 21
42.8625
 31
0.0000
  0
LINE
  8
51
 10
123.5075
 20
42.8625
 30
0.0000
 11
123.5075
 21
23.8125
 31
0.0000
  0
LINE
  8
51
 10
123.5075
 20
23.8125
 30
0.0000
 11
104.4575
 21
23.8125
 31
0.0000
  0
CIRCLE
  8
20
 10
113.9825
 20
33.3375
 30
0.0000
 40
1.9939
  0
CIRCLE
  8
20
 10
119.0625
 20
33.3375
 30
0.0000
 40
0.8763
  0
CIRCLE
  8
20
 10
108.9025
 20
33.3375
 30
0.0000
 40
0.8763
  0
CIRCLE
  8
20
 10
110.1725
 20
35.8775
 30
0.0000
 40
1.5240
  0
CIRCLE
  8
20
 10
116.5225
 20
38.4175
 30
0.0000
 40
1.5240
  0
LINE
  8
51
 10
123.5075
 20
23.8125
 30
0.0000
 11
123.5075
 21
42.8625
 31
0.0000
  0
LINE
  8
51
 10
123.5075
 20
42.8625
 30
0.0000
 11
142.5575
 21
42.8625
 31
0.0000
  0
LINE
  8
51
 10
142.5575
 20
42.8625
 30
0.0000
 11
142.5575
 21
23.8125
 31
0.0000
  0
LINE
  8
51
 10
142.5575
 20
23.8125
 30
0.0000
 11
123.5075
 21
23.8125
 31
0.0000
  0
CIRCLE
  8
20
 10
133.0325
 20
33.3375
 30
0.0000
 40
1.9939
  0
CIRCLE
  8
20
 10
138.1125
 20
33.3375
 30
0.0000
 40
0.8763
  0
CIRCLE
  8
20
 10
127.9525
 20
33.3375
 30
0.0000
 40
0.8763
  0
CIRCLE
  8
20
 10
129.2225
 20
35.8775
 30
0.0000
 40
1.5240
  0
CIRCLE
  8
20
 10
135.5725
 20
38.4175
 30
0.0000
 40
1.5240
  0
LINE
  8
51
 10
142.5575
 20
23.8125
 30
0.0000
 11
142.5575
 21
42.8625
 31
0.0000
  0
LINE
  8
51
 10
142.5575
 20
42.8625
 30
0.0000
 11
161.6075
 21
42.8625
 31
0.0000
  0
LINE
  8
51
 10
161.6075
 20
42.8625
 30
0.0000
 11
161.6075
 21
23.8125
 31
0.0000
  0
LINE
  8
51
 10
161.6075
 20
23.8125
 30
0.0000
 11
142.5575
 21
23.8125
 31
0.0000
  0
CIRCLE
  8
20
 10
152.0825
 20
33.3375
 30
0.0000
 40
1.9939
  0
CIRCLE
  8
20
 10
157.1625
 20
33.3375
 30
0.0000
 40
0.8763
  0
CIRCLE
  8
20
 10
147.0025
 20
33.3375
 30
0.0000
 40
0.8763
  0
CIRCLE
  8
20
 10
148.2725
 20
35.8775
 30
0.0000
 40
1.5240
  0
CIRCLE
  8
20
 10
154.6225
 20
38.4175
 30
0.0000
 40
1.5240
  0
LINE
  8
51
 10
161.6075
 20
23.8125
 30
0.0000
 11
161.6075
 21
42.8625
 31
0.0000
  0
LINE
  8
51
 10
161.6075
 20
42.8625
 30
0.0000
 11
180.6575
 21
42.8625
 31
0.0000
  0
LINE
  8
51
 10
180.6575
 20
42.8625
 30
0.0000
 11
180.6575
 21
23.8125
 31
0.0000
  0
LINE
  8
51
 10
180.6575
 20
23.8125
 30
0.0000
 11
161.6075
 21
23.8125
 31
0.0000
  0
CIRCLE
  8
20
 10
171.1325
 20
33.3375
 30
0.0000
 40
1.9939
  0
CIRCLE
  8
20
 10
176.2125
 20
33.3375
 30
0.0000
 40
0.8763
  0
CIRCLE
  8
20
 10
166.0525
 20
33.3375
 30
0.0000
 40
0.8763
  0
CIRCLE
  8
20
 10
167.3225
 20
35.8775
 30
0.0000
 40
1.5240
  0
CIRCLE
  8
20
 10
173.6725
 20
38.4175
 30
0.0000
 40
1.5240
  0
LINE
  8
51
 10
180.6575
 20
23.8125
 30
0.0000
 11
180.6575
 21
42.8625
 31
0.0000
  0
LINE
  8
51
 10
180.6575
 20
42.8625
 30
0.0000
 11
199.7075
 21
42.8625
 31
0.0000
  0
LINE
  8
51
 10
199.7075
 20
42.8625
 30
0.0000
 11
199.7075
 21
23.8125
 31
0.0000
  0
LINE
  8
51
 10
199.7075
 20
23.8125
 30
0.0000
 11
180.6575
 21
23.8125
 31
0.0000
  0
CIRCLE
  8
20
 10
190.1825
 20
33.3375
 30
0.0000
 40
1.9939
  0
CIRCLE
  8
20
 10
195.2625
 20
33.3375
 30
0.0000
 40
0.8763
  0
CIRCLE
  8
20
 10
185.1025
 20
33.3375
 30
0.0000
 40
0.8763
  0
CIRCLE
  8
20
 10
186.3725
 20
35.8775
 30
0.0000
 40
1.5240
  0
CIRCLE
  8
20
 10
192.7225
 20
38.4175
 30
0.0000
 40
1.5240
  0
LINE
  8
51
 10
199.7075
 20
23.8125
 30
0.0000
 11
199.7075
 21
42.8625
 31
0.0000
  0
LINE
  8
51
 10
199.7075
 20
42.8625
 30
0.0000
 11
218.7575
 21
42.8625
 31
0.0000
  0
LINE
  8
51
 10
218.7575
 20
42.8625
 30
0.0000
 11
218.7575
 21
23.8125
 31
0.0000
  0
LINE
  8
51
 10
218.7575
 20
23.8125
 30
0.0000
 11
199.7075
 21
23.8125
 31
0.0000
  0
CIRCLE
  8
20
 10
209.2325
 20
33.3375
 30
0.0000
 40
1.9939
  0
CIRCLE
  8
20
 10
214.3125
 20
33.3375
 30
0.0000
 40
0.8763
  0
CIRCLE
  8
20
 10
204.1525
 20
33.3375
 30
0.0000
 40
0.8763
  0
CIRCLE
  8
20
 10
205.4225
 20
35.8775
 30
0.0000
 40
1.5240
  0
CIRCLE
  8
20
 10
211.7725
 20
38.4175
 30
0.0000
 40
1.5240
  0
LINE
  8
51
 10
218.7575
 20
23.8125
 30
0.0000
 11
218.7575
 21
42.8625
 31
0.0000
  0
LINE
  8
51
 10
218.7575
 20
42.8625
 30
0.0000
 11
237.8075
 21
42.8625
 31
0.0000
  0
LINE
  8
51
 10
237.8075
 20
42.8625
 30
0.0000
 11
237.8075
 21
23.8125
 31
0.0000
  0
LINE
  8
51
 10
237.8075
 20
23.8125
 30
0.0000
 11
218.7575
 21
23.8125
 31
0.0000
  0
CIRCLE
  8
20
 10
228.2825
 20
33.3375
 30
0.0000
 40
1.9939
  0
CIRCLE
  8
20
 10
233.3625
 20
33.3375
 30
0.0000
 40
0.8763
  0
CIRCLE
  8
20
 10
223.2025
 20
33.3375
 30
0.0000
 40
0.8763
  0
CIRCLE
  8
20
 10
224.4725
 20
35.8775
 30
0.0000
 40
1.5240
  0
CIRCLE
  8
20
 10
230.8225
 20
38.4175
 30
0.0000
 40
1.5240
  0
LINE
  8
51
 10
254.4763
 20
23.8125
 30
0.0000
 11
254.4763
 21
42.8625
 31
0.0000
  0
LINE
  8
51
 10
254.4763
 20
42.8625
 30
0.0000
 11
273.5263
 21
42.8625
 31
0.0000
  0
LINE
  8
51
 10
273.5263
 20
42.8625
 30
0.0000
 11
273.5263
 21
23.8125
 31
0.0000
  0
LINE
  8
51
 10
273.5263
 20
23.8125
 30
0.0000
 11
254.4763
 21
23.8125
 31
0.0000
  0
CIRCLE
  8
20
 10
264.0013
 20
33.3375
 30
0.0000
 40
1.9939
  0
CIRCLE
  8
20
 10
269.0813
 20
33.3375
 30
0.0000
 40
0.8763
  0
CIRCLE
  8
20
 10
258.9212
 20
33.3375
 30
0.0000
 40
0.8763
  0
CIRCLE
  8
20
 10
260.1913
 20
35.8775
 30
0.0000
 40
1.5240
  0
CIRCLE
  8
20
 10
266.5412
 20
38.4175
 30
0.0000
 40
1.5240
  0
LINE
  8
51
 10
6.8262
 20
4.7625
 30
0.0000
 11
6.8262
 21
23.8125
 31
0.0000
  0
LINE
  8
51
 10
6.8262
 20
23.8125
 30
0.0000
 11
25.8763
 21
23.8125
 31
0.0000
  0
LINE
  8
51
 10
25.8763
 20
23.8125
 30
0.0000
 11
25.8763
 21
4.7625
 31
0.0000
  0
LINE
  8
51
 10
25.8763
 20
4.7625
 30
0.0000
 11
6.8262
 21
4.7625
 31
0.0000
  0
CIRCLE
  8
20
 10
16.3513
 20
14.2875
 30
0.0000
 40
1.9939
  0
CIRCLE
  8
20
 10
21.4313
 20
14.2875
 30
0.0000
 40
0.8763
  0
CIRCLE
  8
20
 10
11.2713
 20
14.2875
 30
0.0000
 40
0.8763
  0
CIRCLE
  8
20
 10
12.5412
 20
16.8275
 30
0.0000
 40
1.5240
  0
CIRCLE
  8
20
 10
18.8912
 20
19.3675
 30
0.0000
 40
1.5240
  0
LINE
  8
51
 10
30.6388
 20
4.7625
 30
0.0000
 11
30.6388
 21
23.8125
 31
0.0000
  0
LINE
  8
51
 10
30.6388
 20
23.8125
 30
0.0000
 11
49.6887
 21
23.8125
 31
0.0000
  0
LINE
  8
51
 10
49.6887
 20
23.8125
 30
0.0000
 11
49.6887
 21
4.7625
 31
0.0000
  0
LINE
  8
51
 10
49.6887
 20
4.7625
 30
0.0000
 11
30.6388
 21
4.7625
 31
0.0000
  0
CIRCLE
  8
20
 10
40.1638
 20
14.2875
 30
0.0000
 40
1.9939
  0
CIRCLE
  8
20
 10
45.2438
 20
14.2875
 30
0.0000
 40
0.8763
  0
CIRCLE
  8
20
 10
35.0838
 20
14.2875
 30
0.0000
 40
0.8763
  0
CIRCLE
  8
20
 10
36.3538
 20
16.8275
 30
0.0000
 40
1.5240
  0
CIRCLE
  8
20
 10
42.7037
 20
19.3675
 30
0.0000
 40
1.5240
  0
LINE
  8
51
 10
54.4513
 20
4.7625
 30
0.0000
 11
54.4513
 21
23.8125
 31
0.0000
  0
LINE
  8
51
 10
54.4513
 20
23.8125
 30
0.0000
 11
73.5012
 21
23.8125
 31
0.0000
  0
LINE
  8
51
 10
73.5012
 20
23.8125
 30
0.0000
 11
73.5012
 21
4.7625
 31
0.0000
  0
LINE
  8
51
 10
73.5012
 20
4.7625
 30
0.0000
 11
54.4513
 21
4.7625
 31
0.0000
  0
CIRCLE
  8
20
 10
63.9763
 20
14.2875
 30
0.0000
 40
1.9939
  0
CIRCLE
  8
20
 10
69.0563
 20
14.2875
 30
0.0000
 40
0.8763
  0
CIRCLE
  8
20
 10
58.8963
 20
14.2875
 30
0.0000
 40
0.8763
  0
CIRCLE
  8
20
 10
60.1663
 20
16.8275
 30
0.0000
 40
1.5240
  0
CIRCLE
  8
20
 10
66.5162
 20
19.3675
 30
0.0000
 40
1.5240
  0
LINE
  8
51
 10
125.8888
 20
4.7625
 30
0.0000
 11
125.8888
 21
23.8125
 31
0.0000
  0
LINE
  8
51
 10
125.8888
 20
23.8125
 30
0.0000
 11
144.9387
 21
23.8125
 31
0.0000
  0
LINE
  8
51
 10
144.9387
 20
23.8125
 30
0.0000
 11
144.9387
 21
4.7625
 31
0.0000
  0
LINE
  8
51
 10
144.9387
 20
4.7625
 30
0.0000
 11
125.8888
 21
4.7625
 31
0.0000
  0
CIRCLE
  8
20
 10
135.4137
 20
14.2875
 30
0.0000
 40
1.9939
  0
CIRCLE
  8
20
 10
140.4938
 20
14.2875
 30
0.0000
 40
0.8763
  0
CIRCLE
  8
20
 10
130.3338
 20
14.2875
 30
0.0000
 40
0.8763
  0
CIRCLE
  8
20
 10
131.6038
 20
16.8275
 30
0.0000
 40
1.5240
  0
CIRCLE
  8
20
 10
137.9538
 20
19.3675
 30
0.0000
 40
1.5240
  0
LINE
  8
51
 10
197.3263
 20
4.7625
 30
0.0000
 11
197.3263
 21
23.8125
 31
0.0000
  0
LINE
  8
51
 10
197.3263
 20
23.8125
 30
0.0000
 11
216.3762
 21
23.8125
 31
0.0000
  0
LINE
  8
51
 10
216.3762
 20
23.8125
 30
0.0000
 11
216.3762
 21
4.7625
 31
0.0000
  0
LINE
  8
51
 10
216.3762
 20
4.7625
 30
0.0000
 11
197.3263
 21
4.7625
 31
0.0000
  0
CIRCLE
  8
20
 10
206.8513
 20
14.2875
 30
0.0000
 40
1.9939
  0
CIRCLE
  8
20
 10
211.9313
 20
14.2875
 30
0.0000
 40
0.8763
  0
CIRCLE
  8
20
 10
201.7713
 20
14.2875
 30
0.0000
 40
0.8763
  0
CIRCLE
  8
20
 10
203.0413
 20
16.8275
 30
0.0000
 40
1.5240
  0
CIRCLE
  8
20
 10
209.3913
 20
19.3675
 30
0.0000
 40
1.5240
  0
LINE
  8
51
 10
221.1388
 20
4.7625
 30
0.0000
 11
221.1388
 21
23.8125
 31
0.0000
  0
LINE
  8
51
 10
221.1388
 20
23.8125
 30
0.0000
 11
240.1887
 21
23.8125
 31
0.0000
  0
LINE
  8
51
 10
240.1887
 20
23.8125
 30
0.0000
 11
240.1887
 21
4.7625
 31
0.0000
  0
LINE
  8
51
 10
240.1887
 20
4.7625
 30
0.0000
 11
221.1388
 21
4.7625
 31
0.0000
  0
CIRCLE
  8
20
 10
230.6638
 20
14.2875
 30
0.0000
 40
1.9939
  0
CIRCLE
  8
20
 10
235.7438
 20
14.2875
 30
0.0000
 40
0.8763
  0
CIRCLE
  8
20
 10
225.5838
 20
14.2875
 30
0.0000
 40
0.8763
  0
CIRCLE
  8
20
 10
226.8538
 20
16.8275
 30
0.0000
 40
1.5240
  0
CIRCLE
  8
20
 10
233.2038
 20
19.3675
 30
0.0000
 40
1.5240
  0
LINE
  8
51
 10
244.9513
 20
4.7625
 30
0.0000
 11
244.9513
 21
23.8125
 31
0.0000
  0
LINE
  8
51
 10
244.9513
 20
23.8125
 30
0.0000
 11
264.0013
 21
23.8125
 31
0.0000
  0
LINE
  8
51
 10
264.0013
 20
23.8125
 30
0.0000
 11
264.0013
 21
4.7625
 31
0.0000
  0
LINE
  8
51
 10
264.0013
 20
4.7625
 30
0.0000
 11
244.9513
 21
4.7625
 31
0.0000
  0
CIRCLE
  8
20
 10
254.4763
 20
14.2875
 30
0.0000
 40
1.9939
  0
CIRCLE
  8
20
 10
259.5563
 20
14.2875
 30
0.0000
 40
0.8763
  0
CIRCLE
  8
20
 10
249.3963
 20
14.2875
 30
0.0000
 40
0.8763
  0
CIRCLE
  8
20
 10
250.6663
 20
16.8275
 30
0.0000
 40
1.5240
  0
CIRCLE
  8
20
 10
257.0163
 20
19.3675
 30
0.0000
 40
1.5240
  0
LINE
  8
51
 10
268.7638
 20
4.7625
 30
0.0000
 11
268.7638
 21
23.8125
 31
0.0000
  0
LINE
  8
51
 10
268.7638
 20
23.8125
 30
0.0000
 11
287.8138
 21
23.8125
 31
0.0000
  0
LINE
  8
51
 10
287.8138
 20
23.8125
 30
0.0000
 11
287.8138
 21
4.7625
 31
0.0000
  0
LINE
  8
51
 10
287.8138
 20
4.7625
 30
0.0000
 11
268.7638
 21
4.7625
 31
0.0000
  0
CIRCLE
  8
20
 10
278.2887
 20
14.2875
 30
0.0000
 40
1.9939
  0
CIRCLE
  8
20
 10
283.3688
 20
14.2875
 30
0.0000
 40
0.8763
  0
CIRCLE
  8
20
 10
273.2088
 20
14.2875
 30
0.0000
 40
0.8763
  0
CIRCLE
  8
20
 10
274.4787
 20
16.8275
 30
0.0000
 40
1.5240
  0
CIRCLE
  8
20
 10
280.8288
 20
19.3675
 30
0.0000
 40
1.5240
  0
ENDSEC
  0
EOF
